<?xml version="1.0" encoding="UTF-8" standalone="no"?>
<!-- Created with Inkscape (http://www.inkscape.org/) -->

<svg
   width="200.92505"
   height="198.04324"
   viewBox="0 0 200.92505 198.04324"
   version="1.1"
   id="svg1"
   xml:space="preserve"
   xmlns="http://www.w3.org/2000/svg"
   xmlns:svg="http://www.w3.org/2000/svg"><defs
     id="defs1" /><g
     id="layer8"
     transform="translate(-1000.0978,-203.11276)"><g
       id="g87"><rect
         style="display:inline;fill:#99ff99;fill-opacity:1;stroke:#000000;stroke-width:1.98643;stroke-linecap:butt;stroke-linejoin:round;stroke-dasharray:none;stroke-opacity:1"
         id="rect81"
         width="198.93863"
         height="196.05682"
         x="1001.091"
         y="204.10597" /><path
         style="fill:#ffffff;fill-opacity:1;stroke:#000000;stroke-width:7;stroke-linecap:butt;stroke-linejoin:round;stroke-dasharray:none;stroke-opacity:1"
         d="m 1048.8267,399.11104 c -0.1035,-12.75699 3.784,-24.82594 10.8819,-33.92604 9.7004,-11.64473 22.708,-16.67506 39.047,-15.04268 12.4969,1.76586 23.2923,-3.27439 39.687,14.08251 9.9416,15.44403 11.4522,23.55259 11.5221,34.90562"
         id="path82" /><path
         style="fill:#000000;fill-opacity:1;stroke:#000000;stroke-width:7;stroke-linecap:butt;stroke-linejoin:round;stroke-dasharray:none;stroke-opacity:1"
         d="m 1098.5955,352.54275 -19.6835,-2.88052 c -19.8773,10.06744 -33.6811,7.38043 -47.6885,5.12092 5.0451,-22.80982 6.4747,-29.34965 6.7212,-30.56544 l -0.32,-38.7269 c 2.1637,-13.41591 3.8717,-26.80503 16.0028,-40.80726 9.1142,-7.29089 16.5519,-15.35552 33.1259,-19.20342 11.1254,-0.8466 21.9212,-2.35245 35.3663,1.44026 8.3006,2.32824 17.0588,7.40245 26.5647,16.96302 5.398,11.83361 14.7277,12.27075 15.4771,41.95174 l -0.9052,38.69977 c 1.8989,9.9708 4.0104,20.15416 7.6947,31.91034 -20.6858,3.14129 -36.0188,-0.30547 -48.884,-6.78943 z"
         id="path83" /><path
         style="fill:#ffffff;fill-opacity:1;stroke:#000000;stroke-width:7;stroke-linecap:butt;stroke-linejoin:round;stroke-dasharray:none;stroke-opacity:1"
         d="m 1102.1514,258.4511 c 25.9357,18.76913 41.8811,27.54792 49.1102,27.61037 0.9959,12.18756 2.451,24.34233 -4.7526,37.11557 -6.7314,14.89602 -15.8055,19.25016 -24.8946,23.5367 -17.408,7.37681 -32.4313,4.73786 -46.8471,-0.45263 -11.6108,-5.61076 -18.9212,-15.55604 -20.8209,-19.91567 -4.8836,-9.18215 -5.7025,-14.15309 -6.1105,-21.27356 l 0.1132,-16.52096 c 41.4648,-10.21325 51.6171,-20.18564 54.2023,-30.09982 z"
         id="path84" /><path
         style="fill:none;fill-opacity:1;stroke:#000000;stroke-width:7;stroke-linecap:round;stroke-linejoin:round;stroke-dasharray:none;stroke-opacity:1"
         d="m 1082.6883,324.76124 c 9.0666,7.00118 17.3872,15.41561 37.5682,1.35788"
         id="path85" /><ellipse
         style="fill:#000000;fill-opacity:1;stroke:#000000;stroke-width:2.14178;stroke-linecap:butt;stroke-linejoin:round;stroke-dasharray:none;stroke-opacity:1"
         id="path86"
         cx="1078.3523"
         cy="297.11496"
         rx="4.5984039"
         ry="4.5984025" /><ellipse
         style="fill:#000000;fill-opacity:1;stroke:#000000;stroke-width:1.97289;stroke-linecap:butt;stroke-linejoin:round;stroke-dasharray:none;stroke-opacity:1"
         id="path87"
         cx="1123.389"
         cy="298.0202"
         rx="4.6828489"
         ry="4.6828485" /></g></g></svg>
