<?xml version="1.0" encoding="UTF-8" standalone="no"?>
<!-- Created with Inkscape (http://www.inkscape.org/) -->

<svg
   width="195.93681"
   height="190.54309"
   viewBox="0 0 195.93681 190.54309"
   version="1.1"
   id="svg1"
   xml:space="preserve"
   xmlns="http://www.w3.org/2000/svg"
   xmlns:svg="http://www.w3.org/2000/svg"><defs
     id="defs1" /><g
     id="layer8"
     transform="translate(0.54737164,-805.97614)"><g
       id="g69"><rect
         style="display:inline;opacity:1;fill:#99cc99;fill-opacity:1;stroke:#000000;stroke-width:1.97689;stroke-linecap:butt;stroke-linejoin:round;stroke-dasharray:none;stroke-opacity:1"
         id="rect62"
         width="193.95993"
         height="188.56618"
         x="0.44107336"
         y="806.9646" /><path
         style="display:inline;opacity:1;fill:#ffffff;fill-opacity:1;stroke:#000000;stroke-width:7;stroke-linecap:butt;stroke-linejoin:round;stroke-dasharray:none;stroke-opacity:1"
         d="m 49.223393,994.60181 c -0.09948,-9.75363 5.97296,-20.48426 11.202565,-26.20228 15.923923,-12.24424 25.690841,-8.53052 37.11557,-9.27889 16.941872,-0.38366 27.995112,0.33423 39.378712,10.52363 10.12787,9.7706 12.18481,18.12491 12.08841,24.82026"
         id="path63" /><path
         style="display:inline;opacity:1;fill:#ffffff;fill-opacity:1;stroke:#000000;stroke-width:7;stroke-linecap:butt;stroke-linejoin:round;stroke-dasharray:none;stroke-opacity:1"
         d="M 98.220471,962.28905 C 82.58796,962.14895 69.954533,957.51656 60.199644,948.48386 43.767493,930.5215 43.885092,921.62446 43.22606,916.34721 c -1.090324,-9.52288 -3.463811,-18.49584 -1.810516,-29.19456 1.162968,-7.94543 2.835372,-16.28708 11.542037,-30.09983 14.095118,-13.54615 20.961827,-13.6681 29.420879,-16.74727 12.558136,-2.14005 25.26322,-2.51675 38.24714,0.45263 7.88619,3.5387 12.97865,2.36298 27.15774,16.52096 7.99975,11.99611 7.02778,20.32714 8.54503,29.48716 0.35268,17.30367 -0.48606,24.00939 -2.20823,30.9388 -2.60263,12.39667 -7.27411,21.54357 -14.0315,28.96825 -18.49141,16.16492 -29.36258,15.0019 -41.868169,15.6157 z"
         id="path64" /><path
         style="opacity:1;fill:none;fill-opacity:1;stroke:#000000;stroke-width:7;stroke-linecap:butt;stroke-linejoin:round;stroke-dasharray:none;stroke-opacity:1"
         d="m 43.22606,916.34721 1.018415,-26.08274 9.674943,1.47104 c 7.984836,-0.62333 11.870039,-4.25306 13.46571,-9.56178 l 4.639446,6.11049 c 3.249994,0.54126 6.499987,-0.29839 9.749981,-1.88645 3.659369,-1.1573 5.514056,-3.68636 7.041253,-6.56117 1.725445,3.08087 3.003758,6.90697 5.921054,8.00142 l 4.16074,0.16003 c 3.750158,-0.74519 5.561918,-4.88258 7.681368,-8.48151 1.77682,2.5033 0.5786,5.69315 7.36131,7.04125 3.05691,0.77135 5.29944,0.32114 7.52134,-0.16002 3.15594,-0.77837 6.17008,-1.91122 8.48151,-4.80086 2.52489,3.3606 3.30767,6.7212 13.12233,10.0818 l 9.92177,-0.16003 1.13291,26.18642"
         id="path65" /><path
         style="opacity:1;fill:none;fill-opacity:1;stroke:#000000;stroke-width:7;stroke-linecap:round;stroke-linejoin:round;stroke-dasharray:none;stroke-opacity:1"
         d="m 78.573985,933.7662 c 12.31824,10.76758 26.409165,11.68688 42.567575,1.1202"
         id="path66" /><path
         style="opacity:1;fill:#ffffff;fill-opacity:1;stroke:#000000;stroke-width:7;stroke-linecap:butt;stroke-linejoin:round;stroke-dasharray:none;stroke-opacity:1"
         d="m 43.22606,916.34721 v 0 c 1.942118,20.84391 8.723751,43.82837 -10.420221,55.34574 l 22.277172,3.17714 5.342947,-6.47056 c 7.710647,-6.89724 12.595107,-6.02246 18.788945,-8.74847 -7.91225,-1.36165 -13.458107,-6.2729 -19.015259,-11.1672 C 45.865266,931.8058 46.048189,928.54789 43.22606,916.34721 Z"
         id="path67" /><ellipse
         style="opacity:1;fill:#000000;fill-opacity:1;stroke:#000000;stroke-width:5.79739;stroke-linecap:round;stroke-linejoin:round;stroke-dasharray:none;stroke-opacity:1"
         id="path68"
         cx="74.484756"
         cy="905.25891"
         rx="2.7705934"
         ry="2.7705946" /><ellipse
         style="opacity:1;fill:#000000;fill-opacity:1;stroke:#000000;stroke-width:5.93685;stroke-linecap:round;stroke-linejoin:round;stroke-dasharray:none;stroke-opacity:1"
         id="path69"
         cx="117.70985"
         cy="904.08984"
         rx="2.7008653"
         ry="2.7008672" /></g></g></svg>
