<?xml version="1.0" encoding="UTF-8" standalone="no"?>
<!-- Created with Inkscape (http://www.inkscape.org/) -->

<svg
   width="199.55338"
   height="197.49493"
   viewBox="0 0 199.55338 197.49493"
   version="1.1"
   id="svg1"
   xml:space="preserve"
   xmlns="http://www.w3.org/2000/svg"
   xmlns:svg="http://www.w3.org/2000/svg"><defs
     id="defs1" /><g
     id="layer8"
     transform="translate(-392.61623,-404.52839)"><g
       id="g105"><rect
         style="display:inline;fill:#9999ff;fill-opacity:1;stroke:#000000;stroke-width:1.98716;stroke-linecap:round;stroke-linejoin:round;stroke-dasharray:none;stroke-opacity:1"
         id="rect99"
         width="197.56622"
         height="195.50774"
         x="393.60983"
         y="405.52197" /><path
         style="fill:#ffffff;fill-opacity:1;stroke:#000000;stroke-width:7;stroke-linecap:butt;stroke-linejoin:round;stroke-dasharray:none;stroke-opacity:1"
         d="m 443.2789,600.10681 c 0.11672,-8.43262 2.62268,-16.32968 13.12233,-26.24467 7.11492,-3.90665 14.13212,-7.84078 34.56615,-8.00143 14.89696,1.95747 33.13911,0.12371 42.24752,8.64154 6.88703,7.69834 11.40926,15.93263 11.52205,25.60456"
         id="path100" /><path
         style="fill:#ffffff;fill-opacity:1;stroke:#000000;stroke-width:7;stroke-linecap:round;stroke-linejoin:round;stroke-dasharray:none;stroke-opacity:1"
         d="m 490.32727,573.54208 c -15.58127,0.39686 -27.13875,-6.15646 -38.08678,-13.76245 -7.81526,-8.63481 -15.26577,-18.21797 -18.88336,-37.76672 -0.49809,-7.19211 -1.43465,-13.83614 -0.32006,-23.0441 l -3.20057,0.96017 c -0.0815,-12.82097 -1.94572,-24.77756 11.52205,-44.16786 13.61451,-13.38384 28.21127,-25.62171 54.40969,-24.32433 17.43003,0.82569 34.45902,3.41592 47.68849,22.72404 10.2961,20.06131 11.08561,27.96202 10.88193,44.48792 l -4.80085,-1.60028 c 0.98278,10.18035 0.56859,17.56677 0.32006,25.2845 -3.33082,17.57957 -11.51843,30.30234 -22.08393,40.64723 -9.84876,6.65323 -19.57005,10.73215 -37.44667,10.56188 z"
         id="path101" /><path
         style="fill:none;fill-opacity:1;stroke:#000000;stroke-width:7;stroke-linecap:round;stroke-linejoin:round;stroke-dasharray:none;stroke-opacity:1"
         d="m 468.24334,537.37564 48.3286,0.96017 c -6.20826,7.11068 -9.62231,16.43432 -24.64438,16.32291 -15.3715,-0.01 -19.03827,-9.02298 -23.68422,-17.28308 z"
         id="path102" /><path
         style="fill:none;fill-opacity:1;stroke:#000000;stroke-width:7;stroke-linecap:round;stroke-linejoin:round;stroke-dasharray:none;stroke-opacity:1"
         d="m 433.03707,498.96881 c 24.89913,-8.83611 27.98047,-16.60794 36.4865,-24.64439 -2.78181,5.87303 -4.83739,11.26191 -2.56046,13.76245 11.13401,-1.96887 13.23523,-7.55087 18.56331,-11.84211 -2.64168,5.12376 -7.898,11.38432 -1.28023,12.48223 6.7996,-0.18249 13.13442,-6.87198 19.52347,-12.80228 -2.93924,4.67818 -8.71088,10.3005 -7.04125,13.44239 15.16008,-0.59101 19.34067,-7.76972 26.56473,-13.12234 6.08618,7.35489 12.2382,14.69939 26.24467,20.80371"
         id="path103" /><ellipse
         style="fill:#000000;fill-opacity:1;stroke:#000000;stroke-width:1.84045;stroke-linecap:round;stroke-linejoin:round;stroke-dasharray:none;stroke-opacity:1"
         id="path104"
         cx="467.97165"
         cy="508.93893"
         rx="4.7490659"
         ry="4.7490664" /><ellipse
         style="fill:#000000;fill-opacity:1;stroke:#000000;stroke-width:1.96919;stroke-linecap:round;stroke-linejoin:round;stroke-dasharray:none;stroke-opacity:1"
         id="path105"
         cx="513.57977"
         cy="508.6189"
         rx="4.6846957"
         ry="4.6846967" /></g></g></svg>
