<?xml version="1.0" encoding="UTF-8" standalone="no"?>
<!-- Created with Inkscape (http://www.inkscape.org/) -->

<svg
   width="199.15511"
   height="201.71237"
   viewBox="0 0 199.15511 201.71237"
   version="1.1"
   id="svg1"
   xml:space="preserve"
   sodipodi:docname="diane-plain.svg"
   xmlns:inkscape="http://www.inkscape.org/namespaces/inkscape"
   xmlns:sodipodi="http://sodipodi.sourceforge.net/DTD/sodipodi-0.dtd"
   xmlns="http://www.w3.org/2000/svg"
   xmlns:svg="http://www.w3.org/2000/svg"><sodipodi:namedview
     id="namedview1"
     pagecolor="#505050"
     bordercolor="#eeeeee"
     borderopacity="1"
     inkscape:showpageshadow="0"
     inkscape:pageopacity="0"
     inkscape:pagecheckerboard="0"
     inkscape:deskcolor="#505050"><inkscape:page
       x="0"
       y="0"
       width="199.15511"
       height="201.71237"
       id="page2"
       margin="0"
       bleed="0" /></sodipodi:namedview><defs
     id="defs1" /><g
     id="layer8"
     transform="translate(1.0000009,1.000001)"><g
       id="g20"><rect
         style="display:inline;fill:#ff9999;fill-opacity:1;stroke:#000000;stroke-width:1.97843;stroke-linecap:round;stroke-linejoin:round;stroke-dasharray:none;stroke-opacity:1"
         id="rect14"
         width="197.17667"
         height="199.73395"
         x="-0.010785928"
         y="-0.010785928" /><path
         style="fill:#ffffff;fill-opacity:1;stroke:none;stroke-width:7;stroke-linecap:round;stroke-linejoin:round;stroke-dasharray:none;stroke-opacity:1"
         d="m 57.042258,178.55809 -23.436276,-5.24724 8.481509,-25.2845 -0.960171,-25.92462 0.740854,-38.591697 C 44.767334,63.239102 53.444387,47.233006 73.778512,39.831344 L 119.0414,38.473457 c 13.52703,7.039263 27.96733,13.28487 32.58928,28.062992 l 2.82084,15.284199 3.49659,33.559892 -1.76031,39.20698 5.76103,20.16358 -20.41388,2.76747 -11.80763,-16.34445 -31.151411,-3.76243 -28.903375,3.18359 z"
         id="path20" /><path
         style="fill:#ffffff;fill-opacity:1;stroke:#000000;stroke-width:6.66786;stroke-linecap:round;stroke-linejoin:round;stroke-dasharray:none;stroke-opacity:1"
         d="m 50.082469,199.32241 c 0.27919,-11.34426 4.006166,-23.55161 19.590065,-38.72713 5.212754,-4.68377 14.277436,-6.21176 28.903375,-3.18359 25.770281,-4.29236 23.749981,-0.85888 31.151411,3.76243 13.95419,11.35868 17.1076,24.49042 18.30547,38.14829"
         id="path14" /><path
         style="fill:none;fill-opacity:1;stroke:#000000;stroke-width:7;stroke-linecap:round;stroke-linejoin:round;stroke-dasharray:none;stroke-opacity:1"
         d="M 98.575909,157.41169 C 78.184499,156.52516 65.948765,149.673 57.031242,139.86233 41.902184,125.49189 43.248652,102.81897 41.868174,83.510033 43.329232,64.164894 48.076023,54.63448 73.778512,39.831344 c 13.21875,-3.522931 26.233428,-7.381128 45.262888,-1.357887 12.31351,5.586051 22.35244,8.3755 32.58928,28.062992 4.27786,13.834985 3.69393,27.800592 0,45.262891 -2.41586,15.90909 -8.83471,27.34624 -17.19989,33.94717 -10.93217,9.01362 -24.63954,10.29998 -35.854881,11.66518 z"
         id="path15" /><path
         style="fill:none;fill-opacity:1;stroke:#000000;stroke-width:7;stroke-linecap:butt;stroke-linejoin:round;stroke-dasharray:none;stroke-opacity:1"
         d="m 55.640271,178.3904 c -8.192021,2.05021 -14.435512,-1.19732 -22.034289,-5.07955 6.957648,-8.77237 8.733233,-17.11291 8.481509,-25.2845 -0.861254,-11.34753 -1.303325,-20.59913 -0.960171,-25.92462 L 41.868174,83.510033 C 53.136728,82.440834 62.728939,82.365297 80.014242,75.853502 90.207353,71.040053 97.391347,64.507108 103.3784,57.290197 c 5.44842,7.666465 12.28791,12.550789 19.84353,16.002849 10.4552,3.87436 20.77439,7.60169 31.22959,8.527602 1.14946,9.263803 2.59804,12.970471 3.49659,33.559892 0.33067,13.32664 -2.35479,25.84267 -1.76031,39.20698 0.60402,7.01371 2.44175,13.75326 5.76103,20.16358 -4.6894,3.74279 -12.1274,3.82079 -20.41388,2.76747"
         id="path16" /><path
         style="fill:none;fill-opacity:1;stroke:#000000;stroke-width:7;stroke-linecap:round;stroke-linejoin:round;stroke-dasharray:none;stroke-opacity:1"
         d="m 78.413957,131.22336 c 14.125222,11.48035 27.693673,9.59814 40.967293,0.64011"
         id="path17" /><ellipse
         style="fill:none;fill-opacity:1;stroke:#000000;stroke-width:7;stroke-linecap:round;stroke-linejoin:round;stroke-dasharray:none;stroke-opacity:1"
         id="path18"
         cx="75.037941"
         cy="100.2526"
         rx="3.3947167"
         ry="2.9420879" /><ellipse
         style="fill:none;fill-opacity:1;stroke:#000000;stroke-width:7;stroke-linecap:round;stroke-linejoin:round;stroke-dasharray:none;stroke-opacity:1"
         id="path19"
         cx="120.74149"
         cy="100.5779"
         rx="3.600641"
         ry="3.2805839" /></g></g></svg>
