<?xml version="1.0" encoding="UTF-8" standalone="no"?>
<!-- Created with Inkscape (http://www.inkscape.org/) -->

<svg
   width="199.44067"
   height="195.4671"
   viewBox="0 0 199.44067 195.4671"
   version="1.1"
   id="svg1"
   xml:space="preserve"
   xmlns="http://www.w3.org/2000/svg"
   xmlns:svg="http://www.w3.org/2000/svg"><defs
     id="defs1" /><g
     id="layer8"
     transform="translate(-1000.1207,-606.86817)"><g
       id="g42"><rect
         style="display:inline;fill:#5599ff;fill-opacity:1;stroke:#000000;stroke-width:1.97175;stroke-linecap:square;stroke-linejoin:round;stroke-dasharray:none;stroke-opacity:1"
         id="rect35"
         width="197.46887"
         height="193.49535"
         x="1001.1066"
         y="607.85406" /><path
         style="fill:#ffffff;fill-opacity:1;stroke:#000000;stroke-width:7;stroke-linecap:butt;stroke-linejoin:round;stroke-dasharray:none;stroke-opacity:1"
         d="m 1051.4569,800.18671 c -0.056,-8.79617 3.8245,-20.40127 10.4105,-27.09655 11.1302,-9.72036 23.8834,-13.77944 38.0209,-12.67361 18.0659,-0.47243 30.752,1.35357 41.1892,10.8631 7.6182,8.93176 9.7612,18.77607 10.1841,28.90706"
         id="path35" /><path
         style="display:inline;fill:#ffffff;fill-opacity:1;stroke:none;stroke-width:1;stroke-linecap:square;stroke-linejoin:round;stroke-dasharray:none;stroke-opacity:1"
         d="m 1099.2093,765.16916 c -9.9911,-0.4923 -19.9683,-2.26685 -29.8735,-10.63678 -7.3095,-4.87109 -13.9371,-11.82466 -18.7841,-24.21565 -4.8366,-9.4093 -9.2906,-19.80188 -11.3157,-36.43662 -1.4874,-17.21594 3.6034,-30.34178 11.9946,-41.41555 8.1683,-10.20122 18.1136,-17.1515 30.0998,-20.3683 15.06,-2.62837 29.6896,-2.97121 43.2261,2.48946 9.4715,5.68514 18.9904,11.28473 25.5735,22.17882 7.3674,9.58761 9.7189,22.08835 9.2789,36.21031 l -7.4683,31.68402 c -4.4802,10.92664 -9.4806,21.3005 -17.8789,28.06299 -11.6604,7.95686 -23.2653,10.99075 -34.8524,12.4473 z"
         id="path38" /><path
         style="fill:none;fill-opacity:1;stroke:#000000;stroke-width:7;stroke-linecap:square;stroke-linejoin:round;stroke-dasharray:none;stroke-opacity:1"
         d="m 1099.2093,765.16916 c -11.2452,-0.91769 -21.9703,-2.89713 -29.8735,-10.63678 -7.0346,-6.28598 -14.2709,-10.62872 -18.7841,-24.21565 -4.1874,-8.45403 -9.2221,-18.71328 -11.3157,-36.43662 1.8892,-12.39915 -3.0964,-20.21517 11.9946,-41.41555 7.4572,-7.19618 11.8295,-14.87944 30.0998,-20.3683 13.1341,-1.71932 25.9968,-3.98154 43.2261,2.48946 8.3433,4.85583 16.6455,9.13627 25.5735,22.17882 5.3609,7.76102 9.8789,17.12359 9.2789,36.21031 -1.7967,9.60635 -2.8201,17.57527 -7.4683,31.68402 -3.5235,10.87692 -9.5274,20.20355 -17.8789,28.06299 -10.0601,7.45988 -21.883,11.1722 -34.8524,12.4473 z"
         id="path36" /><path
         style="fill:none;fill-opacity:1;stroke:#000000;stroke-width:7;stroke-linecap:square;stroke-linejoin:round;stroke-dasharray:none;stroke-opacity:1"
         d="m 1050.5517,730.31673 c -1.7715,-10.97549 -3.6522,-22.01643 -2.4895,-31.23139 24.9243,-14.94782 29.0763,-27.70909 31.4577,-40.28397 7.1278,5.25705 2.8415,8.34607 21.2736,16.29463 4.0737,2.64491 8.1473,2.87293 12.221,3.1684 3.8108,-0.27499 6.8253,-1.61175 8.8262,-4.29997 8.2558,11.24973 19.3394,16.84375 30.5525,22.17882 1.163,10.32797 -0.064,19.1592 -0.4526,28.51562"
         id="path37" /><path
         style="fill:#ffffff;fill-opacity:1;stroke:#000000;stroke-width:7;stroke-linecap:round;stroke-linejoin:round;stroke-dasharray:none;stroke-opacity:1"
         d="m 1081.7925,734.21068 c 10.1148,5.63308 19.583,12.84668 37.1267,0.32006"
         id="path39" /><path
         style="fill:#ffffff;fill-opacity:1;stroke:#000000;stroke-width:7;stroke-linecap:round;stroke-linejoin:round;stroke-dasharray:none;stroke-opacity:1"
         d="m 1048.0622,699.08534 110.1924,0.26305"
         id="path40" /><path
         style="fill:none;fill-opacity:1;stroke:#000000;stroke-width:7;stroke-linecap:round;stroke-linejoin:round;stroke-dasharray:none;stroke-opacity:1"
         d="m 1095.8181,699.19934 -2.7193,17.0859 h -24.8946 l -3.6206,-17.16046"
         id="path41" /><path
         style="fill:none;fill-opacity:1;stroke:#000000;stroke-width:7;stroke-linecap:round;stroke-linejoin:round;stroke-dasharray:none;stroke-opacity:1"
         d="m 1105.0942,699.22149 1.3571,17.06375 h 26.0262 l 3.6238,-16.98973"
         id="path42" /></g></g></svg>
