<?xml version="1.0" encoding="UTF-8" standalone="no"?>
<!-- Created with Inkscape (http://www.inkscape.org/) -->

<svg
   width="200.87933"
   height="201.0621"
   viewBox="0 0 200.87933 201.0621"
   version="1.1"
   id="svg1"
   xml:space="preserve"
   xmlns="http://www.w3.org/2000/svg"
   xmlns:svg="http://www.w3.org/2000/svg"><defs
     id="defs1" /><g
     id="layer8"
     transform="translate(-1000.1208,0.54737056)"><g
       id="g81"><rect
         style="display:inline;fill:#99ffff;fill-opacity:1;stroke:#000000;stroke-width:1.96493;stroke-linecap:round;stroke-linejoin:round;stroke-dasharray:none;stroke-opacity:1"
         id="rect75"
         width="198.91435"
         height="199.09718"
         x="1001.1033"
         y="0.43509445" /><path
         style="fill:#ffffff;fill-opacity:1;stroke:#000000;stroke-width:7;stroke-linecap:butt;stroke-linejoin:round;stroke-dasharray:none;stroke-opacity:1"
         d="m 1055.4175,198.47777 c -0.095,-10.74412 5.5395,-23.23057 12.1078,-31.23139 11.9665,-10.96188 23.6324,-11.70263 35.305,-12.67361 11.6902,1.18876 23.3266,0.54927 35.3051,11.54204 7.5654,8.91415 12.4886,21.02352 12.4473,32.36296"
         id="path76" /><path
         style="fill:#000000;fill-opacity:1;stroke:#000000;stroke-width:7;stroke-linecap:round;stroke-linejoin:round;stroke-dasharray:none;stroke-opacity:1"
         d="m 1102.5162,156.7479 -18.8833,-2.64047 -17.4655,7.48109 c -6.3749,2.35811 -13.695,4.5311 -22.6315,4.29997 5.0869,-7.53314 6.72,-22.67908 6.0556,-27.2903 -0.1977,-12.2305 -3.9199,-31.23428 -3.0723,-35.46509 1.1637,-16.746082 5.0679,-30.68679 10.7031,-39.257512 7.1299,-10.946745 17.3563,-19.832685 29.766,-22.912672 8.4432,-2.041535 19.0993,-2.537945 30.3261,-0.452629 15.6949,4.148164 26.7483,11.642476 33.2683,22.40513 7.8064,11.576893 10.0425,25.764865 11.0894,40.510283 0.3681,14.24876 -3.1767,27.30502 -2.926,37.67567 -0.2484,8.85744 2.5882,15.47127 4.5102,22.75029 -10.6175,0.13902 -20.0584,-2.41104 -29.1946,-5.65786 l -13.8052,-4.07366 z"
         id="path77" /><path
         style="fill:#ffffff;fill-opacity:1;stroke:#000000;stroke-width:7;stroke-linecap:round;stroke-linejoin:round;stroke-dasharray:none;stroke-opacity:1"
         d="m 1117.1819,60.197288 c 20.538,20.846382 26.8201,26.693459 33.8534,31.686379 0.8436,14.497943 1.3234,26.071553 -2.6472,35.755333 -5.8004,17.64573 -15.7614,20.7133 -24.8694,24.39175 -23.0706,6.77893 -34.9579,3.06388 -43.0935,-0.62638 -18.3756,-10.81865 -19.8305,-14.41826 -22.6064,-21.05862 -4.3026,-14.6234 -2.4778,-20.40095 -1.0264,-27.54408 2.1758,-6.459848 8.4474,-10.882587 15.4855,-13.407462 10.9385,-2.551058 21.877,-7.568186 32.1366,-16.068326 4.8923,-3.922784 9.0662,-9.20581 12.7674,-13.128594 z"
         id="path78" /><path
         style="fill:none;fill-opacity:1;stroke:#000000;stroke-width:7;stroke-linecap:round;stroke-linejoin:round;stroke-dasharray:none;stroke-opacity:1"
         d="m 1084.4988,130.80975 c 8.8035,7.40197 25.3382,10.61448 36.663,0.90526"
         id="path79" /><ellipse
         style="fill:#000000;fill-opacity:1;stroke:#000000;stroke-width:1.81155;stroke-linecap:round;stroke-linejoin:round;stroke-dasharray:none;stroke-opacity:1"
         id="path80"
         cx="1081.0682"
         cy="101.57925"
         rx="4.7635193"
         ry="4.7635174" /><ellipse
         style="fill:#000000;fill-opacity:1;stroke:#000000;stroke-width:1.83308;stroke-linecap:round;stroke-linejoin:round;stroke-dasharray:none;stroke-opacity:1"
         id="path81"
         cx="1124.7468"
         cy="101.57927"
         rx="4.752749"
         ry="4.7527504" /></g></g></svg>
