<?xml version="1.0" encoding="UTF-8" standalone="no"?>
<!-- Created with Inkscape (http://www.inkscape.org/) -->

<svg
   width="198.49747"
   height="198.45012"
   viewBox="0 0 198.49747 198.45012"
   version="1.1"
   id="svg1"
   xml:space="preserve"
   xmlns="http://www.w3.org/2000/svg"
   xmlns:svg="http://www.w3.org/2000/svg"><defs
     id="defs1" /><g
     id="layer8"
     transform="translate(-196.15509,-203.13564)"><g
       id="g93"><rect
         style="display:inline;fill:#99ff99;fill-opacity:1;stroke:#000000;stroke-width:1.97537;stroke-linecap:round;stroke-linejoin:round;stroke-dasharray:none;stroke-opacity:1"
         id="rect87"
         width="196.52211"
         height="196.47475"
         x="197.14278"
         y="204.12332" /><path
         style="fill:#ffffff;fill-opacity:1;stroke:#000000;stroke-width:7;stroke-linecap:butt;stroke-linejoin:round;stroke-dasharray:none;stroke-opacity:1"
         d="m 250.5301,399.67132 c 0.0297,-10.01272 4.90135,-21.26492 11.54203,-30.09982 9.10319,-10.54367 21.76494,-11.00475 34.3998,-11.54204 11.84379,0.24331 23.68758,-1.11277 35.53137,8.37364 8.46847,10.93853 13.29499,23.06521 13.35255,33.21164"
         id="path88" /><path
         style="fill:#ffffff;fill-opacity:1;stroke:#000000;stroke-width:7;stroke-linecap:round;stroke-linejoin:round;stroke-dasharray:none;stroke-opacity:1"
         d="m 296.0193,361.65049 c -11.24028,-0.22473 -20.21743,-1.49547 -30.32614,-8.59995 -18.75761,-14.38932 -19.21197,-21.91493 -24.44196,-31.23139 -3.34062,-6.31699 -5.80217,-19.6665 -8.59995,-30.32614 -3.77774,-18.7809 5.48008,-37.94416 16.74727,-49.33655 17.50165,-12.73381 35.00331,-16.34041 52.50496,-15.84201 17.58216,-0.13932 30.07835,5.58978 39.83134,14.48412 7.05272,10.23525 14.99268,18.35479 14.48412,46.62078 -1.20701,9.79928 -2.41402,20.22951 -3.62103,27.15774 -1.53241,15.17806 -9.19647,26.90706 -20.3683,36.66294 -7.93557,7.22882 -21.73638,10.48349 -36.21031,10.41046 z"
         id="path89" /><path
         style="fill:none;fill-opacity:1;stroke:#000000;stroke-width:7;stroke-linecap:round;stroke-linejoin:round;stroke-dasharray:none;stroke-opacity:1"
         d="m 277.91414,333.13487 c 12.76475,7.53458 25.86513,10.0348 39.83135,-0.45263"
         id="path90" /><path
         style="fill:none;fill-opacity:1;stroke:#000000;stroke-width:7;stroke-linecap:round;stroke-linejoin:round;stroke-dasharray:none;stroke-opacity:1"
         d="m 241.2512,321.81915 c -1.55808,-11.44396 -3.59608,-24.13569 -2.26314,-28.06299 13.67824,-3.34685 24.58996,-12.22673 35.30505,-21.49988 -1.94249,3.69647 -5.5293,7.39294 -4.7526,11.08941 27.83411,-6.12156 18.5228,-8.42449 25.34722,-11.76835 -0.955,4.10737 -2.44669,8.03585 -5.20523,11.54204 18.68045,-1.27002 21.9617,-6.59246 30.09982,-10.63678 10.56134,10.64712 21.12268,15.91989 31.68402,21.27356 0.82479,2.91189 0.86675,12.86926 1.13157,20.82093"
         id="path91" /><ellipse
         style="fill:#000000;fill-opacity:1;stroke:#000000;stroke-width:1.77472;stroke-linecap:round;stroke-linejoin:round;stroke-dasharray:none;stroke-opacity:1"
         id="path92"
         cx="273.12561"
         cy="301.64124"
         rx="4.7819319"
         ry="4.7819309" /><ellipse
         style="fill:#000000;fill-opacity:1;stroke:#000000;stroke-width:1.96535;stroke-linecap:round;stroke-linejoin:round;stroke-dasharray:none;stroke-opacity:1"
         id="path93"
         cx="317.89853"
         cy="302.32016"
         rx="4.8755927"
         ry="4.6866174" /></g></g></svg>
