<?xml version="1.0" encoding="UTF-8" standalone="no"?>
<!-- Created with Inkscape (http://www.inkscape.org/) -->

<svg
   width="199.48077"
   height="199.72215"
   viewBox="0 0 199.48077 199.72215"
   version="1.1"
   id="svg1"
   xml:space="preserve"
   xmlns="http://www.w3.org/2000/svg"
   xmlns:svg="http://www.w3.org/2000/svg"><defs
     id="defs1" /><g
     id="layer8"
     transform="translate(-392.65254,0.54737086)"><g
       id="g48"><rect
         style="display:inline;fill:#aaaaaa;fill-opacity:1;stroke:#000000;stroke-width:1.97081;stroke-linecap:butt;stroke-linejoin:round;stroke-dasharray:none;stroke-opacity:1"
         id="rect42"
         width="197.50996"
         height="197.75133"
         x="393.63794"
         y="0.43803418" /><path
         style="display:inline;fill:#ffffff;fill-opacity:1;stroke:#000000;stroke-width:7;stroke-linecap:butt;stroke-linejoin:round;stroke-dasharray:none;stroke-opacity:1"
         d="m 440.07833,197.31512 c -0.14683,-7.45669 1.90363,-15.96245 12.64225,-26.88479 8.55435,-6.10525 23.62181,-9.41005 42.08749,-8.96159 29.13883,1.57264 32.91787,4.31767 40.00712,8.80157 10.08195,11.05684 13.69649,19.91919 14.08251,26.88478"
         id="path43" /><path
         style="display:inline;fill:#ffffff;fill-opacity:1;stroke:#000000;stroke-width:7;stroke-linecap:butt;stroke-linejoin:round;stroke-dasharray:none;stroke-opacity:1"
         d="m 493.60786,164.82934 c -16.35658,0.42992 -29.11989,-5.18922 -38.48686,-11.202 -13.28731,-13.8616 -16.64431,-26.98762 -18.5633,-40.00712 -4.22127,-15.69966 -2.74969,-33.473493 2.2404,-42.247517 6.01607,-8.911093 8.87604,-17.166923 24.64439,-26.244671 11.82428,-6.8638 24.46782,-7.173542 37.1266,-7.36131 19.49087,1.013516 29.1025,9.758614 39.04695,18.243247 7.49862,9.712626 12.04418,21.362059 13.60242,36.166437 -1.27348,22.671694 -2.44873,26.809654 -4.96088,32.965864 -4.71523,14.53204 -10.54461,23.21479 -16.96302,28.80513 -13.74354,11.76442 -22.42442,10.496 -37.6867,10.88194 z"
         id="path44" /><path
         style="fill:none;fill-opacity:1;stroke:#000000;stroke-width:7;stroke-linecap:butt;stroke-linejoin:round;stroke-dasharray:none;stroke-opacity:1"
         d="m 444.21195,138.86997 c -1.65318,-8.96378 -3.46373,-17.91325 -1.89322,-27.17009 2.09852,-16.009799 7.31425,-24.053395 12.00213,-33.445952 9.96614,4.186384 18.30617,6.404308 22.56402,3.680655 3.70265,-2.020124 7.55792,-3.887625 9.80435,-7.363972 1.21667,4.152778 5.00897,7.275303 10.74993,9.618365 7.24687,-1.104905 8.35352,-5.099324 10.74994,-8.486792 3.35159,3.204789 7.7014,5.785684 15.84201,5.997333 3.55943,-0.184817 7.30368,0.184832 10.29731,-1.697359 4.39341,7.383652 7.71295,14.946282 10.29731,22.631442 2.06417,10.3208 1.4827,19.1298 1.56988,28.32089"
         id="path45" /><path
         style="fill:none;fill-opacity:1;stroke:#000000;stroke-width:7;stroke-linecap:round;stroke-linejoin:round;stroke-dasharray:none;stroke-opacity:1"
         d="m 479.10769,138.50444 h 28.74194"
         id="path46" /><ellipse
         style="fill:#000000;fill-opacity:1;stroke:#000000;stroke-width:6.47054;stroke-linecap:round;stroke-linejoin:round;stroke-dasharray:none;stroke-opacity:1"
         id="path47"
         cx="468.92355"
         cy="104.10465"
         rx="3.659447"
         ry="3.6594467" /><circle
         style="fill:#ffffff;fill-opacity:1;stroke:#000000;stroke-width:7;stroke-linecap:round;stroke-linejoin:round;stroke-dasharray:none;stroke-opacity:1"
         id="path48"
         cx="517.80743"
         cy="104.33096"
         r="3.3947167" /></g></g></svg>
