<?xml version="1.0" encoding="UTF-8" standalone="no"?>
<!-- Created with Inkscape (http://www.inkscape.org/) -->

<svg
   width="219.18262"
   height="197.36311"
   viewBox="0 0 219.18262 197.36311"
   version="1.1"
   id="svg1"
   xml:space="preserve"
   xmlns="http://www.w3.org/2000/svg"
   xmlns:svg="http://www.w3.org/2000/svg"><defs
     id="defs1" /><g
     id="layer8"
     transform="translate(-782.94567,-203.12807)"><g
       id="g62"><rect
         style="display:inline;opacity:1;fill:#ff9999;fill-opacity:1;stroke:#000000;stroke-width:2;stroke-linecap:round;stroke-linejoin:round;stroke-dasharray:none;stroke-opacity:1"
         id="rect2"
         width="217.18259"
         height="195.36311"
         x="783.94568"
         y="204.12807" /><path
         style="opacity:1;fill:#ffffff;fill-opacity:1;stroke:#000000;stroke-width:7;stroke-linecap:butt;stroke-linejoin:round;stroke-dasharray:none;stroke-opacity:1"
         d="m 838.61553,398.47277 c -0.006,-17.13111 9.10739,-26.9299 14.33628,-33.12774 6.37856,-6.19722 13.53002,-13.28534 40.80727,-13.28237 12.8461,1.34793 24.52883,-4.27388 42.56757,11.04197 7.77657,9.07102 13.69598,19.49092 13.77216,35.32746"
         id="path55" /><path
         style="display:inline;opacity:1;fill:#ffffff;fill-opacity:1;stroke:#000000;stroke-width:7;stroke-linecap:round;stroke-linejoin:round;stroke-dasharray:none;stroke-opacity:1"
         d="m 952.80958,296.69281 c 10.44935,9.41034 17.3844,19.93631 19.84354,36.80655 0.41579,11.33151 -3.25937,23.35769 0.96017,32.64581 -26.35649,-1.93164 -29.71281,-17.57493 -34.56615,-32.32576"
         id="path59" /><path
         style="display:inline;opacity:1;fill:#ffffff;fill-opacity:1;stroke:#000000;stroke-width:7;stroke-linecap:round;stroke-linejoin:round;stroke-dasharray:none;stroke-opacity:1"
         d="m 836.30885,300.21343 c -7.80631,8.83946 -19.78488,20.40649 -19.20342,34.56616 1.17437,12.90937 2.05713,25.67295 -0.96017,36.48649 17.72149,-4.58626 31.5036,-13.94755 35.20627,-35.52632"
         id="path58" /><path
         style="display:inline;opacity:1;fill:#ffffff;fill-opacity:1;stroke:#000000;stroke-width:7;stroke-linecap:round;stroke-linejoin:round;stroke-dasharray:none;stroke-opacity:1"
         d="m 893.65919,354.63474 c -11.50013,-0.52294 -22.05864,-3.11747 -31.42573,-8.3331 -5.02611,-2.40159 -7.93457,-6.49729 -10.88193,-10.56188 -9.53469,-16.86948 -9.30678,-28.22096 -9.28165,-39.68707 l -5.76103,4.16074 c 0.25914,-12.69934 -3.09238,-22.94099 5.28094,-39.68706 6.93244,-12.96541 16.29265,-22.07945 27.68493,-27.5249 16.25878,-4.55658 31.9958,-7.47836 45.28806,-1.44025 10.34876,4.95283 20.79818,9.98617 30.88549,26.72475 7.67266,15.9916 7.0945,26.94104 7.36131,38.40684 l -4.80085,-3.84069 c 0.41967,12.57176 -0.13305,25.45292 -8.96159,40.96729 -4.29756,5.579 -9.61832,8.60002 -14.72262,12.16217 -8.11188,5.41627 -18.28613,8.35768 -30.66533,8.65316 z"
         id="path56" /><path
         style="opacity:1;fill:none;fill-opacity:1;stroke:#000000;stroke-width:7;stroke-linecap:round;stroke-linejoin:round;stroke-dasharray:none;stroke-opacity:1"
         d="m 842.06988,296.05269 c 28.955,-11.33982 35.16827,-23.13448 43.52774,-34.88621 -2.11723,5.76103 -3.30004,11.52205 -1.60028,17.28308 11.48096,-3.64251 17.62646,-11.38922 23.68421,-19.20342 9.99978,12.99215 19.92197,26.02465 40.32718,33.60598"
         id="path57" /><path
         style="opacity:1;fill:none;fill-opacity:1;stroke:#000000;stroke-width:7;stroke-linecap:round;stroke-linejoin:round;stroke-dasharray:none;stroke-opacity:1"
         d="m 875.99591,325.17788 c 6.90333,9.33677 26.12838,15.10065 40.32718,0.32005"
         id="path60" /><ellipse
         style="opacity:1;fill:#ffffff;fill-opacity:1;stroke:#000000;stroke-width:5.65264;stroke-linecap:butt;stroke-linejoin:round;stroke-dasharray:none;stroke-opacity:1"
         id="path61"
         cx="873.68445"
         cy="296.30164"
         rx="2.8429744"
         ry="2.8429723" /><ellipse
         style="opacity:1;fill:#000000;fill-opacity:1;stroke:#000000;stroke-width:5.92263;stroke-linecap:butt;stroke-linejoin:round;stroke-dasharray:none;stroke-opacity:1"
         id="path62"
         cx="914.9718"
         cy="296.30164"
         rx="2.7079725"
         ry="2.7079742" /></g></g></svg>
