<?xml version="1.0" encoding="UTF-8" standalone="no"?>
<!-- Created with Inkscape (http://www.inkscape.org/) -->

<svg
   width="198.51498"
   height="197.74237"
   viewBox="0 0 198.51498 197.74237"
   version="1.1"
   id="svg1"
   xml:space="preserve"
   xmlns="http://www.w3.org/2000/svg"
   xmlns:svg="http://www.w3.org/2000/svg"><defs
     id="defs1" /><g
     id="layer8"
     transform="translate(0.3598885,-404.5647)"><g
       id="g99"><rect
         style="display:inline;fill:#9999ff;fill-opacity:1;stroke:#000000;stroke-width:1.96763;stroke-linecap:butt;stroke-linejoin:round;stroke-dasharray:none;stroke-opacity:1"
         id="rect93"
         width="196.54735"
         height="195.77472"
         x="0.62392652"
         y="405.54852" /><path
         style="fill:#ffffff;fill-opacity:1;stroke:#000000;stroke-width:7;stroke-linecap:butt;stroke-linejoin:round;stroke-dasharray:none;stroke-opacity:1"
         d="m 46.733934,600.35566 c -0.0178,-13.03865 8.506579,-24.67827 18.444628,-31.17482 10.632455,-6.28515 22.354203,-6.57918 34.173482,-6.3368 10.343676,-0.256 21.505946,0.96146 34.852426,6.11049 12.57489,10.08486 15.96179,20.39098 16.06832,31.45771"
         id="path94" /><path
         style="fill:#ffffff;fill-opacity:1;stroke:#000000;stroke-width:7;stroke-linecap:butt;stroke-linejoin:round;stroke-dasharray:none;stroke-opacity:1"
         d="M 98.6731,565.55981 C 81.149774,565.85096 68.445533,557.72274 57.257556,548.1336 37.042605,525.04689 39.093337,513.06235 36.889255,501.73914 c -1.789209,-18.06581 1.796644,-32.54824 9.052578,-44.58395 8.234096,-10.54482 18.401734,-19.88119 36.210312,-24.44196 13.232746,-2.52277 25.287225,-0.92159 37.341885,0.67894 14.25026,5.46463 23.91626,13.39771 30.32614,23.08408 9.18338,16.85999 10.2697,30.86221 9.27889,44.13131 -4.04841,22.61914 -11.51197,36.7004 -20.3683,47.29972 -9.15287,10.38384 -22.90841,17.9054 -40.05766,17.65253 z"
         id="path95" /><path
         style="fill:none;fill-opacity:1;stroke:#000000;stroke-width:7;stroke-linecap:round;stroke-linejoin:round;stroke-dasharray:none;stroke-opacity:1"
         d="m 81.246888,538.17576 c 9.946447,4.99885 17.480336,14.21967 38.926082,-0.90526"
         id="path96" /><path
         style="fill:none;fill-opacity:1;stroke:#000000;stroke-width:7;stroke-linecap:butt;stroke-linejoin:round;stroke-dasharray:none;stroke-opacity:1"
         d="m 57.257556,548.1336 c -15.284912,-26.04549 -10.96937,-36.84618 -10.863094,-50.92075 7.836885,-3.29793 15.017709,-8.78273 21.047244,-18.10516 l 1.357887,10.18415 c 0.06205,4.78288 6.431628,3.41881 10.410465,-0.67894 l 10.410464,-11.08941 c -0.265527,5.38628 -0.307691,12.27699 7.694692,13.12624 6.411576,0.64758 8.594026,-4.95942 10.863096,-11.08941 1.06043,3.03846 0.27033,6.34129 5.20523,8.82626 2.81283,2.39287 6.14752,2.48535 8.37363,1.35789 5.91953,-0.65538 6.59174,-5.41247 9.05258,-8.37363 5.65688,11.43426 13.18673,12.56723 19.91567,18.10515 -1.07721,40.48551 -7.69469,34.80213 -11.99466,48.43129"
         id="path97" /><ellipse
         style="fill:#000000;fill-opacity:1;stroke:#000000;stroke-width:6.35579;stroke-linecap:round;stroke-linejoin:round;stroke-dasharray:none;stroke-opacity:1"
         id="path98"
         cx="76.853065"
         cy="511.15051"
         rx="2.4913945"
         ry="2.4913967" /><ellipse
         style="fill:#000000;fill-opacity:1;stroke:#000000;stroke-width:5.91207;stroke-linecap:round;stroke-linejoin:round;stroke-dasharray:none;stroke-opacity:1"
         id="path99"
         cx="119.85281"
         cy="510.69785"
         rx="2.7132587"
         ry="2.7132564" /></g></g></svg>
