<?xml version="1.0" encoding="UTF-8" standalone="no"?>
<!-- Created with Inkscape (http://www.inkscape.org/) -->

<svg
   width="198.57306"
   height="201.006"
   viewBox="0 0 198.57306 201.006"
   version="1.1"
   id="svg1"
   xml:space="preserve"
   xmlns="http://www.w3.org/2000/svg"
   xmlns:svg="http://www.w3.org/2000/svg"><defs
     id="defs1" /><g
     id="layer8"
     transform="translate(-196.11731,0.58515762)"><g
       id="g75"><rect
         style="display:inline;fill:#99ffff;fill-opacity:1;stroke:#000000;stroke-width:1.99888;stroke-linejoin:round;stroke-dasharray:none"
         id="rect3"
         width="196.57419"
         height="199.00711"
         x="197.11674"
         y="0.41428235" /><path
         style="fill:#ffffff;fill-opacity:1;stroke:#000000;stroke-width:7;stroke-linejoin:round;stroke-dasharray:none;stroke-opacity:1"
         d="m 251.00468,198.43532 c 0.0109,-7.54276 0.86284,-21.36692 12.08215,-30.40541 6.92,-4.88007 18.69728,-7.06165 33.28592,-7.68137 13.42835,-0.20852 26.98673,-0.64163 35.84638,7.04125 10.86462,9.00771 12.99573,22.98892 13.04232,31.04553"
         id="path70" /><path
         style="fill:#ffffff;fill-opacity:1;stroke:#000000;stroke-width:7;stroke-linejoin:round;stroke-dasharray:none;stroke-opacity:1"
         d="m 296.21272,164.34925 c -27.94054,-4.01405 -37.78204,-12.37186 -44.64795,-21.44382 -5.89436,-10.23517 -10.24957,-21.6247 -11.04196,-35.68635 -2.41484,-21.140383 1.95144,-37.887356 11.84211,-46.888342 12.50679,-12.244586 27.25236,-20.151533 46.56829,-19.203418 28.62511,1.130407 37.8834,12.739645 42.24751,18.243247 13.26713,22.8904 9.43418,32.178317 9.92177,45.128033 -0.32784,17.17092 -4.88404,29.13769 -10.72191,39.52703 -10.59296,12.0841 -24.62446,19.74723 -44.16786,20.32362 z"
         id="path71" /><path
         style="fill:none;stroke:#000000;stroke-width:7;stroke-linecap:round;stroke-linejoin:round;stroke-dasharray:none;stroke-opacity:1"
         d="m 275.8891,135.22407 c 15.35713,10.91636 28.53791,9.31876 40.48721,0.64011"
         id="path72" /><path
         style="fill:none;stroke:#000000;stroke-width:7;stroke-linejoin:round;stroke-dasharray:none;stroke-opacity:1"
         d="m 240.52281,107.21908 c 7.30802,-3.01404 16.1635,-11.444238 26.88478,-26.404696 16.01235,3.929409 23.90744,0.417991 29.7653,-4.960883 9.82243,9.194523 18.65307,6.156883 27.20484,-0.320057 5.95842,13.298964 13.56248,24.565086 26.72476,28.965156"
         id="path73" /><ellipse
         style="fill:#000000;fill-opacity:1;stroke:#000000;stroke-width:1.30458;stroke-linejoin:round;stroke-dasharray:none;stroke-opacity:1"
         id="path74"
         cx="275.38876"
         cy="106.78447"
         rx="5.0170012"
         ry="5.0170026" /><ellipse
         style="fill:#000000;fill-opacity:1;stroke:#000000;stroke-width:1.64705;stroke-linejoin:round;stroke-dasharray:none;stroke-opacity:1"
         id="path75"
         cx="319.06744"
         cy="106.55817"
         rx="4.8457665"
         ry="4.8457675" /></g></g></svg>
