<?xml version="1.0" encoding="UTF-8" standalone="no"?>
<!-- Created with Inkscape (http://www.inkscape.org/) -->

<svg
   width="208.8793"
   height="213.04291"
   viewBox="0 0 208.8793 213.04291"
   version="1.1"
   id="svg1"
   xml:space="preserve"
   sodipodi:docname="stella.svg"
   inkscape:version="1.4.2 (ebf0e940d0, 2025-05-08)"
   xmlns:inkscape="http://www.inkscape.org/namespaces/inkscape"
   xmlns:sodipodi="http://sodipodi.sourceforge.net/DTD/sodipodi-0.dtd"
   xmlns="http://www.w3.org/2000/svg"
   xmlns:svg="http://www.w3.org/2000/svg"><sodipodi:namedview
     id="namedview1"
     pagecolor="#505050"
     bordercolor="#eeeeee"
     borderopacity="1"
     inkscape:showpageshadow="0"
     inkscape:pageopacity="0"
     inkscape:pagecheckerboard="0"
     inkscape:deskcolor="#505050"
     inkscape:zoom="3.8050109"
     inkscape:cx="95.926138"
     inkscape:cy="105.12454"
     inkscape:window-width="1600"
     inkscape:window-height="831"
     inkscape:window-x="0"
     inkscape:window-y="0"
     inkscape:window-maximized="1"
     inkscape:current-layer="svg1" /><defs
     id="defs1" /><g
     id="layer8"
     transform="translate(-388.01249,-801.99621)"><g
       id="g33"
       transform="translate(-608.10824,806.54356)"><rect
         style="display:inline;fill:#ffaa55;fill-opacity:1;stroke:#000000;stroke-width:1.97813;stroke-linecap:round;stroke-linejoin:round;stroke-dasharray:none;stroke-opacity:1"
         id="rect28"
         width="198.90114"
         height="198.60472"
         x="1001.1098"
         y="0.44169483"
         inkscape:export-filename="stella-plain.svg"
         inkscape:export-xdpi="96"
         inkscape:export-ydpi="96" /><path
         style="display:none;fill:#ffffff;fill-opacity:1;stroke:none;stroke-width:7;stroke-linecap:round;stroke-linejoin:round;stroke-dasharray:none;stroke-opacity:1"
         d="m 1100.6759,155.54769 c -9.4688,-2.23251 -18.7526,-2.15725 -28.4851,-7.68137 -7.1999,-5.11432 -7.9915,-8.66279 -11.2019,-12.80228 -5.4084,-6.50387 -6.0992,-14.95225 -4.1608,-24.48436 1.6849,-8.21085 5.9362,-14.990048 13.1209,-20.132797 4.7069,-5.967851 11.0421,-10.39402 20.6987,-11.675416 11.5048,-1.205418 22.8837,-1.576766 33.9548,0.09374 10.1219,2.808661 17.5985,7.742375 24.8821,12.831115 l 0.8001,6.721196 c 0.8739,9.327822 0.3845,17.218462 -1.7603,23.364162 -2.0156,9.66714 -6.0457,16.10511 -10.5619,21.76387 -5.1514,3.96754 -11.4557,6.96588 -19.1204,8.82066 z"
         id="path33" /><path
         style="fill:#ffffff;fill-opacity:1;stroke:#000000;stroke-width:6.59111;stroke-linecap:round;stroke-linejoin:round;stroke-dasharray:none;stroke-opacity:1"
         d="m 1054.0633,197.67169 c 2.1761,-21.21442 8.1167,-27.05997 15.7491,-33.85394 7.968,-5.80454 17.2478,-8.76053 30.8554,-8.47688 12.3304,-0.1128 26.5687,0.74028 35.7509,7.92978 5.9373,6.32713 9.0116,11.25562 10.8574,17.18314 2.5401,7.53162 2.7571,12.86957 3.8532,17.2179"
         id="path28" /><path
         style="fill:#000000;fill-opacity:1;stroke:#000000;stroke-width:1;stroke-linecap:round;stroke-linejoin:round;stroke-dasharray:none;stroke-opacity:1"
         d="m 1100.6759,155.54769 -24.2704,5.16397 c -10.8445,0.29944 -26.0134,1.87735 -31.3026,20.39745 1.8676,-6.61075 5.0284,-33.83606 4.0438,-39.96399 l -3.2005,-29.76529 c -1.1078,-8.30148 -1.7695,-17.083233 0.7201,-27.204847 1.9349,-10.089542 6.1573,-19.981634 15.2827,-28.805127 6.786,-5.811996 11.3814,-12.191606 30.4054,-16.242892 15.2793,-2.71795 28.0933,0.1147 40.3272,5.040898 8.8671,6.536713 18.1823,12.454606 22.7241,24.964443 3.6619,8.820352 6.4541,18.510373 6.7212,30.725469 0.4821,10.348506 -0.4831,20.697016 -2.5605,31.045526 -1.9297,14.68903 -1.8694,38.34056 -1.5547,49.80574 -3.3763,-13.59814 -12.3252,-14.0939 -19.249,-20.68055 l -38.0868,-4.4808 24.4737,-4.49554 c 4.9471,-2.77255 9.4116,-4.68787 14.3898,-9.34628 5.8143,-7.54819 8.0059,-12.96492 8.985,-19.92419 1.7537,-6.38774 1.942,-17.07186 0.4462,-25.729464 l -11.793,-18.585062 c -11.5034,-7.181798 -20.0474,-7.996078 -30.9081,-8.228048 -16.4375,-1.475367 -23.8518,0.912824 -31.0825,4.482914 -9.7186,4.608088 -12.0188,10.966456 -17.0568,17.05918 -6.844,4.746627 1.366,15.57547 -1.0393,25.05471 -2.1427,9.95421 -2.9897,18.56718 2.0583,24.48436 3.8645,4.33552 11.2798,5.57574 17.2466,8.86011 10.0032,3.56882 15.3078,4.3765 24.2801,6.36731 z"
         id="path29"
         sodipodi:nodetypes="ccccccccccccccccccccccccccc" /><path
         style="fill:none;fill-opacity:1;stroke:#000000;stroke-width:7;stroke-linecap:round;stroke-linejoin:round;stroke-dasharray:none;stroke-opacity:1"
         d="m 1085.9533,131.22336 c 10.9755,8.90367 22.4173,8.48272 34.2461,0.32005"
         id="path30" /><ellipse
         style="fill:#000000;fill-opacity:1;stroke:none;stroke-width:0.779412;stroke-linecap:round;stroke-linejoin:round;stroke-dasharray:none;stroke-opacity:1"
         id="path31"
         cx="1083.0986"
         cy="100.89796"
         rx="3.8665707"
         ry="4.2407551" /><ellipse
         style="fill:#000000;fill-opacity:1;stroke:none;stroke-width:1;stroke-linecap:round;stroke-linejoin:round;stroke-dasharray:none;stroke-opacity:1"
         id="path32"
         cx="1124.5201"
         cy="101.45806"
         rx="4.6408262"
         ry="4.1607404" /></g></g></svg>
