<?xml version="1.0" encoding="UTF-8" standalone="no"?>
<!-- Created with Inkscape (http://www.inkscape.org/) -->

<svg
   width="195.94994"
   height="197.40936"
   viewBox="0 0 195.94994 194.40936"
   version="1.1"
   id="svg1"
   xml:space="preserve"
   xmlns="http://www.w3.org/2000/svg"
   xmlns:svg="http://www.w3.org/2000/svg"><defs
     id="defs1" /><g
     id="layer8"
     transform="translate(-2.202858,-606.87055)"><g
       id="g34"><rect
         style="display:inline;fill:#ff9944;fill-opacity:1;stroke:#000000;stroke-width:2;stroke-linecap:round;stroke-linejoin:round;stroke-dasharray:none;stroke-opacity:1"
         id="rect1"
         width="193.94994"
         height="192.99284"
         x="3.202858"
         y="607.87054" /><path
         style="display:inline;fill:#000000;fill-opacity:1;stroke:#000000;stroke-width:1;stroke-linecap:round;stroke-linejoin:round;stroke-dasharray:none;stroke-opacity:1"
         d="m 123.67718,761.84883 c 16.22145,-3.41726 21.38365,6.99655 45.37971,0.37824 -7.0801,-11.39968 -12.30605,-27.83207 -15.16306,-50.69444 3.19234,-5.19269 4.82076,-18.59598 6.3368,-32.58928 -3.12654,-9.90254 -2.10537,-17.31646 -17.1999,-34.3998 -11.54806,-11.13333 -23.8192,-13.95112 -36.21031,-15.38938 -11.479874,0.35486 -22.989351,0.82812 -35.305054,4.52629 -7.533672,4.34281 -14.7917,9.51255 -21.474367,16.40837 -4.338117,5.07232 -8.46114,11.38144 -11.114914,26.13875 -0.542733,9.55311 -0.601713,19.65907 1.810516,32.58928 -0.347178,22.93182 -5.994296,38.93296 -11.768351,54.76809 10.405177,6.49686 31.145079,-4.03134 47.878341,-0.8587"
         id="path3" /><path
         style="display:inline;fill:#ffffff;fill-opacity:1;stroke:#000000;stroke-width:7;stroke-linecap:square;stroke-linejoin:round;stroke-dasharray:none;stroke-opacity:1"
         d="m 50.473592,799.61866 c 4.984301,-18.98094 8.823691,-21.45624 13.857858,-26.84112 7.249353,-6.64323 22.609818,-7.69192 33.125896,-7.36131 9.719614,-0.58816 21.697624,0.379 29.605264,3.04054 6.26004,3.1283 11.14639,5.70995 15.36274,12.80228 5.05567,8.19599 4.92702,13.83203 5.44097,19.20342"
         id="path1" /><path
         style="display:inline;fill:#ffffff;fill-opacity:1;stroke:#000000;stroke-width:7;stroke-linecap:round;stroke-linejoin:round;stroke-dasharray:none;stroke-opacity:1"
         d="m 97.617374,767.81666 c -10.058812,-1.95711 -20.668009,-3.03361 -27.844956,-9.60171 -6.402009,-3.72014 -12.863353,-8.44897 -19.859615,-22.27141 -2.372296,-6.18883 -3.441814,-15.85173 -4.012085,-26.84596 1.195262,-6.21224 2.746499,-13.49162 6.830549,-19.74377 l 12.22098,-0.67894 c 5.303528,-0.23851 8.169227,-5.29445 11.768352,-8.37363 3.135865,3.77263 5.914803,8.79451 10.18415,8.59995 6.178089,-1.85216 7.85364,-5.95558 10.636779,-9.50521 2.186799,5.5686 5.219702,9.95266 10.410462,11.31572 6.12176,-1.03948 8.61033,-4.9612 14.25781,-9.05258 2.36314,4.12632 5.18469,6.419 8.14732,8.14733 5.32995,1.82896 10.56515,3.81584 17.65253,2.71577 1.71838,14.43959 1.09422,22.63241 1.13157,32.58928 -0.9372,8.07353 -3.22464,15.76128 -8.37363,22.63144 -4.92061,5.65358 -10.45682,11.15326 -20.14199,15.6157 -6.55829,2.04157 -12.93431,4.17426 -23.008226,4.45802 z"
         id="path2" /><path
         style="fill:none;fill-opacity:1;stroke:#000000;stroke-width:7;stroke-linecap:round;stroke-linejoin:round;stroke-dasharray:none;stroke-opacity:1"
         d="m 78.734013,737.41125 c 11.278803,6.20112 21.823297,14.69697 39.687067,0.32005"
         id="path13" /><ellipse
         style="fill:#000000;fill-opacity:1;stroke:#000000;stroke-width:7;stroke-linecap:round;stroke-linejoin:round;stroke-dasharray:none;stroke-opacity:1"
         id="path27"
         cx="75.853508"
         cy="708.44604"
         rx="4.4807973"
         ry="4.0007119" /><ellipse
         style="fill:#000000;fill-opacity:1;stroke:#000000;stroke-width:7;stroke-linecap:round;stroke-linejoin:round;stroke-dasharray:none;stroke-opacity:1"
         id="path34"
         cx="121.14157"
         cy="708.28607"
         rx="4.0007119"
         ry="4.1607404" /></g></g></svg>
