<?xml version="1.0" encoding="UTF-8" standalone="no"?>
<!-- Created with Inkscape (http://www.inkscape.org/) -->

<svg
   width="194.82091"
   height="202.0751"
   viewBox="0 0 194.8209 202.07511"
   version="1.1"
   id="svg1"
   xml:space="preserve"
   sodipodi:docname="stephan.svg"
   inkscape:version="1.4.2 (ebf0e940d0, 2025-05-08)"
   xmlns:inkscape="http://www.inkscape.org/namespaces/inkscape"
   xmlns:sodipodi="http://sodipodi.sourceforge.net/DTD/sodipodi-0.dtd"
   xmlns="http://www.w3.org/2000/svg"
   xmlns:svg="http://www.w3.org/2000/svg"><sodipodi:namedview
     id="namedview1"
     pagecolor="#505050"
     bordercolor="#eeeeee"
     borderopacity="1"
     inkscape:showpageshadow="0"
     inkscape:pageopacity="0"
     inkscape:pagecheckerboard="0"
     inkscape:deskcolor="#505050"
     inkscape:zoom="7.8373376"
     inkscape:cx="123.89411"
     inkscape:cy="188.96723"
     inkscape:window-width="1600"
     inkscape:window-height="831"
     inkscape:window-x="0"
     inkscape:window-y="0"
     inkscape:window-maximized="1"
     inkscape:current-layer="layer8"><inkscape:page
       x="0"
       y="0"
       width="194.82091"
       height="202.0751"
       id="page2"
       margin="0"
       bleed="0" /></sodipodi:namedview><defs
     id="defs1" /><g
     id="layer8"
     transform="translate(-590.13289,0.54786927)"><g
       id="g12"><rect
         style="display:inline;fill:#9999ff;fill-opacity:1;stroke:#000000;stroke-width:1.98337;stroke-linecap:round;stroke-linejoin:round;stroke-dasharray:none;stroke-opacity:1"
         id="rect4"
         width="192.83754"
         height="200.09174"
         x="591.12457"
         y="0.44381583"
         inkscape:export-filename="stephan-plain.svg"
         inkscape:export-xdpi="96"
         inkscape:export-ydpi="96" /><path
         style="display:inline;fill:#ffffff;fill-opacity:1;stroke:none;stroke-width:7;stroke-linecap:round;stroke-linejoin:round;stroke-dasharray:none;stroke-opacity:1"
         d="m 686.18542,165.20955 c -19.56211,-1.68361 -36.89666,-7.11436 -46.62078,-25.34722 l -8.08089,-29.37651 4.00724,-33.765221 c 6.55403,-15.095669 17.50564,-26.709237 35.98399,-32.362966 15.17967,-3.586196 29.2642,-3.947745 40.96292,2.715773 13.5012,7.726991 23.40485,18.952824 28.96825,34.399797 l 3.44981,27.987457 c -1.21296,15.95702 -4.38691,29.36022 -11.1445,38.09636 -12.15305,10.19711 -26.07073,18.33112 -47.52604,17.65253 z"
         id="path11" /><path
         style="display:inline;fill:#ffffff;fill-opacity:1;stroke:#000000;stroke-width:7;stroke-linecap:butt;stroke-linejoin:round;stroke-dasharray:none;stroke-opacity:1"
         d="m 640.98755,199.66465 c 0.0389,-22.88481 13.84751,-34.48129 45.37605,-34.17349 39.91289,-1.00813 52.50131,8.79971 52.61811,34.26295"
         id="path4"
         sodipodi:nodetypes="ccc" /><path
         style="fill:#ffffff;fill-opacity:1;stroke:#000000;stroke-width:7;stroke-linecap:round;stroke-linejoin:round;stroke-dasharray:none;stroke-opacity:1"
         d="m 686.18542,165.20955 c -18.08841,-1.20636 -34.90261,-5.78018 -46.62078,-25.34722 -8.00079,-14.49024 -12.05215,-41.213848 -4.07365,-63.141731 5.5382,-10.555792 13.76118,-26.26845 35.98399,-32.362966 14.95272,-3.671848 26.0021,-4.122431 40.96292,2.715773 11.22195,7.747667 22.45739,15.463291 28.96825,34.399797 2.38047,19.700707 9.39997,37.218347 -7.69469,66.083817 -9.43728,11.06873 -23.64376,18.27685 -47.52604,17.65253 z"
         id="path5" /><path
         style="display:inline;fill:none;fill-opacity:1;stroke:#000000;stroke-width:6;stroke-linecap:round;stroke-linejoin:round;stroke-dasharray:none;stroke-opacity:1"
         d="m 653.66243,115.82751 2.78677,4.69062 22.91698,0.0525 2.72048,-7.7033 0.0184,-13.449048 -25.79319,0.160028 -2.68832,3.81989 z"
         id="path6" /><path
         style="fill:none;fill-opacity:1;stroke:#000000;stroke-width:6;stroke-linecap:round;stroke-linejoin:round;stroke-dasharray:none;stroke-opacity:1"
         d="m 692.60328,99.697746 27.20484,-10e-7 2.88052,2.720485 0.16002,13.44239 -2.2404,4.4808 h -25.28449 l -2.72049,-7.52134 z"
         id="path7" /><path
         style="fill:none;fill-opacity:1;stroke:#000000;stroke-width:6;stroke-linecap:round;stroke-linejoin:round;stroke-dasharray:none;stroke-opacity:1"
         d="M 631.48375,110.48582 653.643,109.61524"
         id="path8" /><path
         style="fill:none;fill-opacity:1;stroke:#000000;stroke-width:6;stroke-linecap:round;stroke-linejoin:round;stroke-dasharray:none;stroke-opacity:1"
         d="m 744.85596,109.46066 -22.08163,0.15593"
         id="path9" /><path
         style="fill:none;fill-opacity:1;stroke:#000000;stroke-width:7;stroke-linecap:butt;stroke-linejoin:round;stroke-dasharray:none;stroke-opacity:1"
         d="m 643.63099,110.00859 0.32363,-11.751101 2.2404,-10.721908 c 10.7522,-3.121664 17.57206,-7.673269 23.68422,-12.482222 l 5.28094,5.28094 c 4.58611,-0.635989 9.71501,-2.900379 16.00284,-8.641538 2.83465,3.139753 6.09191,5.856887 11.04197,6.881225 4.73354,-0.06732 7.95296,-1.648745 10.56188,-3.840684 5.47814,6.522792 11.38794,12.29017 18.5633,15.84282 1.97371,6.076209 2.39233,12.463438 2.24323,18.964208"
         id="path10" /><rect
         style="display:none;fill:#dddddd;fill-opacity:1;stroke:none;stroke-width:6;stroke-linecap:round;stroke-linejoin:round;stroke-dasharray:none;stroke-opacity:1"
         id="rect11"
         width="192.81992"
         height="203.68301"
         x="591.13336"
         y="0.45263001" /><path
         style="fill:#9999ff;fill-opacity:1;stroke:#000000;stroke-width:7;stroke-linecap:round;stroke-linejoin:round;stroke-dasharray:none;stroke-opacity:1"
         d="m 675.00015,143.06547 27.20484,0.32005"
         id="path12" /></g></g></svg>
