<?xml version="1.0" encoding="UTF-8" standalone="no"?>
<!-- Created with Inkscape (http://www.inkscape.org/) -->

<svg
   width="219.16743"
   height="203.21561"
   viewBox="0 0 219.16744 203.2156"
   version="1.1"
   id="svg1"
   xml:space="preserve"
   sodipodi:docname="thomas.svg"
   inkscape:version="1.4.2 (ebf0e940d0, 2025-05-08)"
   xmlns:inkscape="http://www.inkscape.org/namespaces/inkscape"
   xmlns:sodipodi="http://sodipodi.sourceforge.net/DTD/sodipodi-0.dtd"
   xmlns="http://www.w3.org/2000/svg"
   xmlns:svg="http://www.w3.org/2000/svg"><sodipodi:namedview
     id="namedview1"
     pagecolor="#505050"
     bordercolor="#eeeeee"
     borderopacity="1"
     inkscape:showpageshadow="0"
     inkscape:pageopacity="0"
     inkscape:pagecheckerboard="0"
     inkscape:deskcolor="#505050"
     inkscape:zoom="2.4739463"
     inkscape:cx="84.076198"
     inkscape:cy="170.57767"
     inkscape:window-width="1600"
     inkscape:window-height="831"
     inkscape:window-x="0"
     inkscape:window-y="0"
     inkscape:window-maximized="1"
     inkscape:current-layer="svg1"><inkscape:page
       x="0"
       y="0"
       width="219.16743"
       height="203.21561"
       id="page2"
       margin="0"
       bleed="0" /></sodipodi:namedview><defs
     id="defs1" /><g
     id="layer8"
     transform="translate(-782.95329,0.54736806)"><g
       id="g26"><rect
         style="display:inline;fill:#99ff09;fill-opacity:1;stroke:#000000;stroke-width:1.98796;stroke-linecap:butt;stroke-linejoin:round;stroke-dasharray:none;stroke-opacity:1"
         id="rect20"
         width="217.17947"
         height="201.22765"
         x="783.94727"
         y="0.44661185" /><path
         style="fill:#ffffff;fill-opacity:1;stroke:none;stroke-width:0;stroke-linecap:round;stroke-linejoin:round;stroke-dasharray:none;stroke-opacity:1"
         d="m 896.54471,155.93066 -33.8037,-5.72687 -10.3745,-10.15398 -9.57149,-20.55578 4.15367,-27.660565 22.55144,-21.223356 12.67361,10.863094 15.38938,-11.542037 12.4473,7.921006 7.24206,-7.921006 18.7841,16.068326 6.56312,11.315723 1.13157,28.515625 -13.12623,17.87884 c -8.17426,9.23984 -21.18783,10.61579 -34.06033,12.22098 z"
         id="path26" /><path
         style="fill:#ffffff;fill-opacity:1;stroke:#000000;stroke-width:6.753;stroke-linecap:butt;stroke-linejoin:round;stroke-dasharray:none;stroke-opacity:1"
         d="m 841.34232,200.57018 c 0.21218,-10.49906 0.90814,-17.49493 13.59048,-32.38347 1.40017,-1.64374 3.27049,-3.75955 6.91349,-5.73431 8.89572,-5.18873 39.45375,-7.73478 62.01642,-4.77921 16.65161,5.86427 18.63944,13.67159 24.03066,21.02793 2.58676,5.00181 3.6188,12.11059 3.62727,21.86906"
         id="path21"
         sodipodi:nodetypes="cscccc" /><path
         style="fill:#000000;fill-opacity:1;stroke:#000000;stroke-width:7;stroke-linecap:butt;stroke-linejoin:round;stroke-dasharray:none;stroke-opacity:1"
         d="m 894.89005,156.03072 c -11.02873,-0.65507 -22.31432,-0.39584 -32.14904,-5.82693 -9.62445,-3.7615 -17.77787,-10.05286 -22.76287,-16.54921 -6.35364,-5.30096 -10.59046,-26.98812 -11.03059,-42.118287 0.65839,-14.715394 4.44538,-25.91111 9.92176,-35.206267 7.27344,-8.557876 14.62267,-17.06522 27.20485,-22.08393 10.37498,-2.387189 20.94476,-4.676982 38.40683,-3.520627 8.4976,1.601607 17.22503,3.560716 31.04553,13.442393 8.9189,8.814376 15.97885,18.186434 18.88336,28.805127 4.48731,16.653098 2.58758,23.370797 1.92034,32.005701 -1.1627,13.48034 -4.4614,19.48466 -8.00142,24.64438 -4.24448,7.17891 -8.91702,11.78948 -13.76245,15.36274 -19.09627,10.49883 -25.69973,10.28217 -38.02164,10.94485 17.30249,-0.50306 27.61828,-4.2667 35.30587,-11.17116 4.85932,-4.50789 8.21889,-10.82823 11.88069,-18.92866 2.91138,-10.97048 0.10199,-20.50581 -1.13157,-28.515625 -2.1443,-7.545924 -3.84227,-7.805694 -6.56312,-11.315723 -7.13687,-4.042855 -12.78016,-10.326079 -18.7841,-16.068326 -2.08728,3.130455 -3.9966,6.527832 -7.24206,7.921006 -5.26011,0.533977 -8.57086,-4.501637 -12.4473,-7.921006 -3.70821,6.137679 -7.892,11.509129 -15.38938,11.542037 -6.96542,-0.735895 -9.62309,-6.006256 -12.67361,-10.863094 -5.18265,8.528791 -14.94174,15.441666 -22.55144,21.223356 -5.92603,5.398893 -6.0866,18.666855 -4.15367,27.660565 1.53918,4.67018 4.22853,15.60128 9.57149,20.55578 8.88677,8.46338 22.38571,16.1309 42.52354,15.98091 z"
         id="path22" /><path
         style="fill:none;fill-opacity:1;stroke:#000000;stroke-width:7;stroke-linecap:round;stroke-linejoin:round;stroke-dasharray:none;stroke-opacity:1"
         d="m 881.72111,129.22555 c 10.09116,1.3193 19.97426,0.73248 26.7051,0.67895"
         id="path23" /><circle
         style="fill:#000000;fill-opacity:1;stroke:#000000;stroke-width:5.03294;stroke-linecap:butt;stroke-linejoin:round;stroke-dasharray:none;stroke-opacity:1"
         id="path24"
         cx="873.11536"
         cy="96.977249"
         r="4.0347214" /><ellipse
         style="fill:#000000;fill-opacity:1;stroke:#000000;stroke-width:5.06466;stroke-linecap:butt;stroke-linejoin:round;stroke-dasharray:none;stroke-opacity:1"
         id="path25"
         cx="912.80243"
         cy="97.06575"
         ry="3.9366686"
         rx="4.1682372" /></g></g></svg>
