<?xml version="1.0" encoding="UTF-8" standalone="no"?>
<!-- Created with Inkscape (http://www.inkscape.org/) -->

<svg
   width="199.4808"
   height="197.31856"
   viewBox="0 0 199.4808 197.31856"
   version="1.1"
   id="svg1"
   xml:space="preserve"
   xmlns="http://www.w3.org/2000/svg"
   xmlns:svg="http://www.w3.org/2000/svg"><defs
     id="defs1" /><g
     id="layer8"
     transform="translate(-392.65257,-203.13564)"><g
       id="g54"><rect
         style="display:inline;fill:#aaaaaa;fill-opacity:1;stroke:#000000;stroke-width:1.96973;stroke-linecap:round;stroke-linejoin:round;stroke-dasharray:none;stroke-opacity:1"
         id="rect48"
         width="197.51105"
         height="195.34882"
         x="393.63742"
         y="204.1205" /><path
         style="fill:#ffffff;fill-opacity:1;stroke:#000000;stroke-width:7;stroke-linecap:butt;stroke-linejoin:round;stroke-dasharray:none;stroke-opacity:1"
         d="m 441.43857,398.47092 c 0.0468,-14.17721 6.76229,-22.3069 14.64261,-26.88478 7.98145,-4.8711 22.52853,-7.0292 36.48649,-9.28166 13.37108,1.64397 29.40161,0.33298 39.36701,5.76103 12.78654,7.03567 13.48284,19.31324 14.0825,30.72547"
         id="path49" /><path
         style="fill:#ffffff;fill-opacity:1;stroke:#000000;stroke-width:7;stroke-linecap:round;stroke-linejoin:round;stroke-dasharray:none;stroke-opacity:1"
         d="m 492.7277,365.82511 c -13.22227,-1.13389 -24.42848,-4.20392 -37.92675,-12.96231 -16.27186,-14.43924 -16.77617,-22.3436 -20.08972,-35.56994 -4.01545,-24.06074 -3.34571,-44.53142 1.7054,-56.68373 10.00304,-18.7005 19.55449,-23.2959 30.85643,-27.74293 17.83679,-5.11247 33.89598,-4.87486 49.17652,0.23768 15.84593,6.80987 23.57975,14.7487 30.32613,25.34722 10.07382,22.92086 4.68879,42.81466 3.1684,59.29439 -3.48435,17.36741 -11.88958,26.2351 -19.91567,35.75768 -9.72875,7.89663 -23.38264,10.29435 -37.30074,12.32194 z"
         id="path50" /><path
         style="fill:none;fill-opacity:1;stroke:#000000;stroke-width:7;stroke-linecap:round;stroke-linejoin:round;stroke-dasharray:none;stroke-opacity:1"
         d="m 432.23999,294.45913 c 37.06321,-7.39148 49.89453,-18.1485 56.487,-29.77202 11.32862,11.9954 31.13471,22.29531 63.77978,30.02742"
         id="path51" /><path
         style="fill:none;fill-opacity:1;stroke:#000000;stroke-width:7;stroke-linecap:round;stroke-linejoin:round;stroke-dasharray:none;stroke-opacity:1"
         d="m 473.04419,334.77959 c 15.70941,8.32579 27.46051,5.43632 38.08678,-0.64012"
         id="path52" /><ellipse
         style="fill:#000000;fill-opacity:1;stroke:#000000;stroke-width:2.2435;stroke-linecap:round;stroke-linejoin:round;stroke-dasharray:none;stroke-opacity:1"
         id="path53"
         cx="468.77029"
         cy="304.3176"
         rx="4.6047788"
         ry="5.0945716" /><ellipse
         style="fill:#000000;fill-opacity:1;stroke:#000000;stroke-width:2.33028;stroke-linecap:round;stroke-linejoin:round;stroke-dasharray:none;stroke-opacity:1"
         id="path54"
         cx="513.71887"
         cy="304.31689"
         rx="4.8539848"
         ry="4.8345699" /></g></g></svg>
