<?xml version="1.0" encoding="UTF-8" standalone="no"?>
<!-- Created with Inkscape (http://www.inkscape.org/) -->

<svg
   width="1920"
   height="1080"
   viewBox="0 0 1920 1080"
   version="1.1"
   id="svg1"
   xml:space="preserve"
   xmlns:xlink="http://www.w3.org/1999/xlink"
   xmlns="http://www.w3.org/2000/svg"
   xmlns:svg="http://www.w3.org/2000/svg"><defs
     id="defs1"><pattern
       xlink:href="#Wave"
       preserveAspectRatio="xMidYMid"
       id="pattern82"
       patternTransform="scale(10)"
       x="0"
       y="0" /><pattern
       patternUnits="userSpaceOnUse"
       width="24"
       height="10"
       preserveAspectRatio="xMidYMid"
       id="Wave"
       style="fill:#000000"
       x="0"
       y="0"><g
         id="wave_g"
         style="display:inline"><path
           d="M 12,-2 C 9.1666695,-2 7.1679672,-0.56445187 5.4179687,0.68554687 3.6679703,1.9355456 2.1666645,3 0,3 V 5 C 2.8333305,5 4.8320328,3.5644519 6.5820312,2.3144531 8.3320297,1.0644544 9.8333355,0 12,0 14.166665,0 15.667971,1.0644544 17.417969,2.3144531 19.167967,3.5644519 21.166669,5 24,5 V 3 C 21.833335,3 20.332029,1.9355456 18.582031,0.68554687 16.832033,-0.56445189 14.833331,-2 12,-2 Z"
           id="path80" /><path
           d="M 12,3 C 9.1666695,3 7.1679672,4.4355481 5.4179687,5.6855469 3.6679703,6.9355456 2.1666645,8 0,8 v 2 C 2.8333305,10 4.8320328,8.5644519 6.5820312,7.3144531 8.3320297,6.0644544 9.8333355,5 12,5 14.166665,5 15.667971,6.0644544 17.417969,7.3144531 19.167967,8.5644519 21.166669,10 24,10 V 8 C 21.833335,8 20.332029,6.9355456 18.582031,5.6855469 16.832033,4.4355481 14.833331,3 12,3 Z"
           id="path81" /><path
           d="M 12,8 C 9.1666695,8 7.1679672,9.4355481 5.4179687,10.685547 3.6679703,11.935546 2.1666645,13 0,13 v 2 C 2.8333305,15 4.8320328,13.564452 6.5820312,12.314453 8.3320297,11.064454 9.8333355,10 12,10 c 2.166665,0 3.667971,1.064454 5.417969,2.314453 C 19.167967,13.564452 21.166669,15 24,15 V 13 C 21.833335,13 20.332029,11.935546 18.582031,10.685547 16.832033,9.4355481 14.833331,8 12,8 Z"
           id="path82" /></g></pattern></defs><ellipse
     style="display:inline;fill:#dddddd;fill-opacity:0.666667;stroke:none;stroke-width:15.592;stroke-linecap:round;stroke-linejoin:round;stroke-dasharray:none;stroke-opacity:1"
     id="path2-7"
     cx="785.33649"
     cy="762.21387"
     rx="683.23584"
     ry="481.37103"
     transform="matrix(0.96846644,-0.24914405,0.26164301,0.96516472,0,0)" /><g
     id="layer4"
     style="display:inline;stroke:#000000;stroke-width:8;stroke-dasharray:none;stroke-opacity:1"
     transform="translate(106.8204,67.89433)"><path
       style="display:inline;fill:#222222;fill-opacity:1;stroke:none;stroke-width:7;stroke-linejoin:round;stroke-dasharray:none;stroke-opacity:1"
       d="m 1619.4883,160.02848 21.4438,16.96302 19.2034,24.96445 4.1607,35.84638 -0.9601,126.10244 -9.2817,20.16359 -33.2859,21.76388 z"
       id="path86" /><path
       style="display:inline;fill:#222222;fill-opacity:1;stroke:none;stroke-width:7;stroke-linejoin:round;stroke-dasharray:none;stroke-opacity:1"
       d="m 1566.9989,78.73401 c 17.7793,-2.018229 34.5565,0.215511 46.6119,22.48165 l 5.8775,58.81282 1.2802,245.80376 c -1.5018,28.67856 -4.0052,55.85598 -24.3243,56.33002 l -27.4259,13.60706 2.5093,-376.64359 z"
       id="path85" /><path
       style="display:inline;fill:#646464;fill-opacity:1;stroke:none;stroke-width:7;stroke-linejoin:round;stroke-dasharray:none;stroke-opacity:1"
       d="m 1051.198,75.55094 505.4149,2.70953 14.9147,20.86526 -2.5093,376.64359 -30.1844,5.59636 -505.69,-40.64724 c -15.374,-1.41166 -16.2373,-19.80154 -16.643,-38.72689 l 1.9203,-292.53207 c -1.6328,-13.959838 4.9171,-22.559252 14.0826,-29.44524 z"
       id="path84" /><path
       style="fill:none;stroke:#000000;stroke-width:8;stroke-linecap:round;stroke-linejoin:round;stroke-dasharray:none;stroke-opacity:1"
       d="m 1310.9533,74.253217 -234.2817,1.280228 c -24.7647,-1.519043 -36.3475,0.91649 -44.1678,4.480797 -7.3899,6.041065 -15.0009,11.772545 -14.0826,29.445238 l -1.9203,292.53207 c 0.6621,14.55159 -1.1808,34.99656 16.643,38.72689 151.4275,14.91995 296.0915,30.38097 505.69,40.64724 12.3046,-1.12553 17.7987,2.95693 57.6103,-19.20342 23.3296,-13.68169 23.9372,-19.56791 24.3243,-56.33002 l -1.2802,-245.80376 c -0.7052,-22.32113 -1.6189,-44.19079 -5.8775,-58.81282 -3.1075,-17.495938 -16.8513,-21.795526 -46.6119,-22.481645 -119.4386,-5.584404 -174.7106,-3.468819 -256.0456,-4.480798 z"
       id="path51" /><path
       style="fill:none;stroke:#000000;stroke-width:8;stroke-linecap:round;stroke-linejoin:round;stroke-dasharray:none;stroke-opacity:1"
       d="m 1569.0183,475.76932 c 3.2589,-132.81519 5.0672,-243.17558 2.5093,-376.64359 -0.4993,-14.123673 -7.6263,-17.306568 -14.9147,-20.865262"
       id="path52" /><path
       style="fill:none;stroke:#000000;stroke-width:8;stroke-linecap:round;stroke-linejoin:round;stroke-dasharray:none;stroke-opacity:1"
       d="m 1620.7685,405.83224 c 7.3551,2.0958 21.1407,-11.88463 33.2859,-21.76388 8.0502,-6.65339 8.8631,-13.25774 9.2817,-20.16359 0.474,-40.70012 2.7557,-65.73249 0.9601,-126.10244 -0.2144,-15.85705 -1.3895,-28.51193 -4.1607,-35.84638 -5.839,-13.38097 -12.534,-19.05777 -19.2034,-24.96445 l -21.4438,-16.96302"
       id="path53" /><path
       style="display:inline;fill:#aaaaaa;fill-opacity:1;stroke:none;stroke-width:7;stroke-linejoin:round;stroke-dasharray:none;stroke-opacity:1"
       d="m 1286.8354,119.94419 214.9873,2.26561 23.5367,21.72619 -0.9052,243.51435 -25.3473,27.15774 -420.9448,-24.44196 -15.3894,-28.96825 -0.9053,-217.26188 23.5367,-20.82093 z"
       id="path83" /><path
       style="fill:url(#pattern82);fill-opacity:1;stroke:#000000;stroke-width:8;stroke-linecap:round;stroke-linejoin:round;stroke-dasharray:none;stroke-opacity:1"
       d="m 1501.8227,122.2098 c -149.5047,-3.26441 -288.6391,-3.07206 -416.4186,0.90526 -10.1638,0.61798 -19.8921,2.42341 -23.5367,20.82093 -0.1709,69.11194 -2.2029,125.19652 0.9053,217.26188 -0.137,16.38591 4.6654,26.46036 15.3894,28.96825 120.1151,11.45879 269.4372,25.12487 420.9448,24.44196 14.4906,0.73605 24.9233,-18.08977 25.3473,-27.15774 2.835,-89.19172 3.191,-170.53522 0.9052,-243.51435 -0.606,-11.51999 -4.3504,-21.18549 -23.5367,-21.72619 z"
       id="path54" /><circle
       style="fill:#aaaaaa;fill-opacity:1;stroke:#000000;stroke-width:8;stroke-linecap:round;stroke-linejoin:round;stroke-dasharray:none;stroke-opacity:1"
       id="path55"
       cx="1425.8538"
       cy="443.91901"
       r="11.522051" /><circle
       style="fill:#aaaaaa;fill-opacity:1;stroke:#000000;stroke-width:8;stroke-linecap:round;stroke-linejoin:round;stroke-dasharray:none;stroke-opacity:1"
       id="path56"
       cx="1470.6617"
       cy="446.79953"
       r="11.201994" /></g><g
     id="layer2"
     style="display:inline;stroke:#000000;stroke-width:8;stroke-dasharray:none;stroke-opacity:1"><g
       id="layer5"
       style="display:inline;stroke:#000000;stroke-width:8;stroke-dasharray:none;stroke-opacity:1"><path
         style="display:inline;fill:#af740d;fill-opacity:1;stroke:none;stroke-width:8;stroke-linecap:round;stroke-linejoin:round;stroke-dasharray:none;stroke-opacity:1"
         d="m 652.69088,581.17552 -6.55565,4.47682 -40.51775,-19.86621 c -27.90322,-17.01634 -41.53051,-57.78974 -52.02016,-103.78459 3.00437,-34.30699 9.00841,-67.37314 37.69605,-91.05607 l -22.79146,3.46101 33.49453,-27.69274 c 2.49261,-16.15775 6.80774,-31.0873 21.72619,-38.87117 l 0.90526,29.45304 c 23.396,-25.8159 53.16569,-38.50929 87.81001,-41.16648 30.937,-2.46558 61.74488,0.49818 92.33629,12.56378 24.90288,11.80721 50.0527,22.79852 67.89434,57.9365 0.84536,12.68714 2.13457,26.18527 -10.86309,13.57887 l -22.63145,-13.57887 c 7.29124,12.75594 20.91869,18.78552 13.57887,47.07341 H 840.98451 L 828.3109,397.40818 c 2.63051,9.84042 6.36103,20.33916 -3.62103,22.63145 l -26.25248,-6.33681 -21.72619,-22.63145 c 16.64941,30.34772 18.71328,63.71653 0,101.38888 -8.85356,-8.78433 -18.64711,-14.02764 -30.55245,-11.31572 -15.24625,8.11359 -16.84772,22.60193 -17.42621,37.5682 l 6.3368,28.06299 c -2.27496,10.61965 -7.00861,18.39467 -13.52504,24.11122 -7.47914,6.56107 -17.30674,10.41052 -28.46093,12.73694 z"
         id="path70" /><path
         style="display:inline;fill:#fee4cd;fill-opacity:1;stroke:none;stroke-width:8;stroke-linecap:round;stroke-linejoin:round;stroke-dasharray:none;stroke-opacity:1"
         d="m 750.85365,624.11109 c -22.29661,-21.74494 -48.38062,-27.69366 -73.95073,-35.78568 l 15.61931,-4.43412 c 22.64668,-2.99692 36.4896,-15.74474 42.54711,-37.11557 l -6.3368,-28.06299 c -1.01372,-20.47039 6.73479,-30.73342 17.42621,-37.5682 l 30.55245,11.31572 c 20.81689,-36.04884 13.98393,-69.10575 0,-101.38888 l 21.72619,22.63145 26.25248,6.33681 7.43864,-12.57182 8.856,6.23501 h 11.76835 l 4.7526,47.75235 15.38939,17.87884 c 8.64327,5.24223 17.57076,10.40566 8.37363,20.59462 l -7.25343,14.55041 -3.15703,39.99137 -10.4656,16.58257 -18.72897,16.45934 -54.31547,18.33147 -24.89459,5.20523 z"
         id="path71" /><path
         style="display:inline;fill:#fee4cd;fill-opacity:1;stroke:none;stroke-width:8;stroke-linecap:round;stroke-linejoin:round;stroke-dasharray:none;stroke-opacity:1"
         d="m 755.97456,768.45678 c 22.42695,-8.20218 39.57058,-23.20265 53.32931,-42.55865 l 3.64083,-11.53098 -28.48507,-43.52774 3.84068,-32.16573 -0.95233,-32.82989 54.31547,-18.33147 18.72897,-16.45934 10.4656,-16.58257 c 7.36467,8.77437 9.34706,23.26618 9.93876,39.23527 -5.68325,20.14163 -20.72925,35.07509 -42.24752,46.40826 l 15.04268,64.65151 -1.60029,66.8919 c -5.68803,12.41885 -12.25058,24.03729 -29.44524,25.92462 -24.42636,0.55827 -46.98982,-7.43802 -66.57185,-29.12519 z"
         id="path72" /><path
         style="display:inline;fill:#ffffff;fill-opacity:1;stroke:none;stroke-width:8;stroke-linecap:round;stroke-linejoin:round;stroke-dasharray:none;stroke-opacity:1"
         d="m 491.28745,697.08408 15.04267,-12.48222 53.44952,-28.16502 54.40968,-54.08962 31.94591,-16.69488 30.46711,2.58809 c 25.48735,8.28841 51.54797,13.72305 74.25131,35.87066 l 33.60598,46.72832 28.48507,43.52774 -3.64083,11.53098 c -15.50444,24.83088 -34.62126,32.73721 -53.32931,42.55865 l -25.37659,-16.66763 -59.4385,62.11572 -67.53203,28.16501 c 15.39479,-27.23122 9.50468,-46.53604 1.28023,-64.97156 -13.31326,-25.63672 -31.97432,-43.32185 -52.48934,-58.25037 z"
         id="path73" /><path
         style="display:inline;fill:#22a44c;fill-opacity:1;stroke:none;stroke-width:8;stroke-linecap:round;stroke-linejoin:round;stroke-dasharray:none;stroke-opacity:1"
         d="m 433.99725,710.84653 57.2902,-13.76245 61.13088,21.76387 c 17.27158,14.54812 34.62205,30.8044 52.48934,58.25037 6.75185,19.01975 15.48584,37.31124 -1.28023,64.97156 l -110.71456,55.04061 -87.08064,33.45515 -41.52494,2.00868 11.37469,-14.19027 c 9.83323,-19.10177 12.09442,-35.64844 5.88418,-49.33655 -5.87438,-13.70886 -17.75838,-18.76219 -30.77877,-22.17882 l -1.28519,-7.03919 -28.58832,-11.06596 -20.3683,-30.32614 14.0315,-66.98908 31.23139,-85.99949 13.02112,-10.14532 37.22069,19.65053 47.52604,-0.45263 2.26314,18.55778 z"
         id="path74" /><path
         style="display:inline;fill:#572e04;fill-opacity:1;stroke:none;stroke-width:7;stroke-linejoin:round;stroke-dasharray:none;stroke-opacity:1"
         d="M 256.8669,964.32589 C 237.30351,957.84666 233.16963,943.84782 234.9144,926.984 l 30.77877,-44.35763 49.33655,-34.3998 26.87681,4.10185 3.90195,4.04547 c 9.059,12.19483 0.743,25.80919 -2.77068,39.0312 l -37.06066,44.70515 z"
         id="path75" /><path
         style="display:inline;fill:#572e04;fill-opacity:1;stroke:none;stroke-width:7;stroke-linejoin:round"
         d="m 310.95605,588.19126 -9.5052,-17.87884 c 2.91723,-11.20239 6.24542,-22.21383 22.63145,-27.15773 19.41844,-6.33578 38.88656,-4.43804 58.38913,3.1684 l 60.19964,35.30505 25.57353,25.12091 c 0.10101,21.6996 -10.91915,27.65823 -15.84201,30.77877 l -2.85426,3.94238 -46.7086,-11.41076 -41.64186,-27.15774 z"
         id="path76" /><path
         style="display:inline;fill:#984f06;fill-opacity:1;stroke:none;stroke-width:7;stroke-linejoin:round"
         d="m 256.8669,964.32589 49.11024,-24.21565 37.06066,-44.70515 c 4.94629,-13.98283 11.12891,-28.26453 2.77068,-39.0312 l 4.97892,-9.50521 c 11.0684,2.31055 21.90298,6.09031 30.77877,22.17882 7.37941,20.6305 1.39451,35.27335 -5.88418,49.33655 l -11.37469,14.19027 -47.91969,28.80948 z"
         id="path77" /><path
         style="display:inline;fill:#984f06;fill-opacity:1;stroke:none;stroke-width:7;stroke-linejoin:round"
         d="m 310.95605,588.19126 50.24182,14.71044 41.64186,27.15774 46.7086,11.41076 -5.972,13.0312 -47.52604,0.45263 -37.22069,-19.65053 z"
         id="path78" /></g><path
       style="fill:none;stroke:#000000;stroke-width:8;stroke-linejoin:round;stroke-dasharray:none;stroke-opacity:1"
       d="m 688.90119,568.50191 3.62104,15.38938 c -61.93523,9.51541 -67.3276,-7.64034 -86.90475,-18.10516 -28.74805,-21.40579 -49.41882,-69.3824 -52.02016,-103.78459 -2.30704,-34.23169 13.79077,-68.06037 37.69605,-91.05607 l -22.79146,3.46101 c 9.5818,-15.08298 20.90772,-24.62975 33.49453,-27.69274 3.45333,-27.80058 13.19497,-31.54934 21.72619,-38.87117 0.74134,7.57859 2.52465,15.57917 0.90526,29.45304 13.21802,-17.15392 35.91351,-34.31554 87.81001,-41.16648 31.43962,-2.43981 61.17482,0.46144 92.33629,12.56378 39.13995,14.51938 62.16608,42.25525 67.89434,57.9365 3.79125,18.04279 -0.14651,21.99153 -10.86309,13.57887 -9.39359,-7.60924 -15.64588,-9.983 -22.63145,-13.57887 15.88545,19.05681 20.73659,34.8442 13.57887,47.07341 -4.27156,4.06907 -8.13578,3.38577 -11.76835,0 -7.40339,-6.70309 -9.22048,-11.17166 -12.67361,-16.29464 2.04989,6.6099 9.39665,13.1082 -3.62103,22.63145 -13.60898,3.69423 -19.32016,-1.32549 -26.25248,-6.33681 L 776.7112,391.07137 c 24.95934,42.99913 8.65494,80.6634 0,101.38888 -10.25959,-10.06665 -21.87706,-14.58821 -30.55245,-11.31572 -14.70757,6.02504 -17.50997,25.15578 -17.42621,37.5682 0.86642,12.67659 3.73244,20.02091 6.3368,28.06299 -5.23788,19.39814 -17.46979,33.11364 -41.98597,36.84816 2.17456,-7.27104 -1.86871,-10.65595 -4.18218,-15.12197 z"
       id="path1" /><path
       style="fill:none;stroke:#000000;stroke-width:8;stroke-linecap:round;stroke-linejoin:round;stroke-dasharray:none;stroke-opacity:1"
       d="m 735.06934,546.77572 c 8.3182,6.668 16.33524,12.12062 27.7429,8.35172"
       id="path2" /><path
       style="fill:none;stroke:#000000;stroke-width:8;stroke-linecap:round;stroke-linejoin:round;stroke-dasharray:none;stroke-opacity:1"
       d="m 752.77399,511.45104 c 7.50982,-0.27552 13.18048,3.46166 14.08251,17.60313"
       id="path3" /><path
       style="fill:none;stroke:#000000;stroke-width:8;stroke-linecap:round;stroke-linejoin:round;stroke-dasharray:none;stroke-opacity:1"
       d="m 852.75286,413.70282 c 4.09133,24.94314 4.898,38.06144 4.7526,47.75235 1.71676,9.57342 6.42315,15.98134 15.38939,17.87884 14.37061,5.51843 14.43324,15.70019 8.37363,20.59462 -5.14368,3.91807 -7.47406,4.61221 -7.25343,14.55041 2.25414,13.63852 0.22002,27.60046 -3.15703,39.99137 -6.27692,15.62011 -17.9691,24.01987 -29.19457,33.04191 -14.77191,9.61917 -31.48691,17.19298 -54.31547,18.33147 -21.28109,-0.57299 -22.15785,2.48145 -24.89459,5.20523 l -11.59974,13.06207 c -27.99642,-26.91054 -64.21141,-31.90488 -98.16277,-42.93557 l -6.55565,4.47682"
       id="path4" /><path
       style="fill:none;stroke:#000000;stroke-width:8;stroke-linecap:round;stroke-linejoin:round;stroke-dasharray:none;stroke-opacity:1"
       d="m 870.85802,554.47041 c -13.22433,11.5587 -21.48986,6.25749 -28.74194,-2.48946"
       id="path5" /><path
       style="fill:none;stroke:#000000;stroke-width:8;stroke-linecap:round;stroke-linejoin:round;stroke-dasharray:none;stroke-opacity:1"
       d="m 860.39242,571.05298 c 1.29678,10.89095 -0.0317,21.3392 -8.08071,30.65412"
       id="path6" /><path
       style="fill:none;stroke:#000000;stroke-width:8;stroke-linejoin:round;stroke-dasharray:none;stroke-opacity:1"
       d="m 870.85802,554.47041 c 6.90588,5.58918 14.24298,14.41153 9.93876,39.23527 -7.83216,24.5845 -24.29536,36.58209 -42.24752,46.40826 5.24298,19.26295 10.61789,37.20665 15.04268,64.65151 2.58583,24.72339 3.44089,48.10063 -1.60029,66.8919 -6.2455,18.07544 -17.27962,23.49523 -29.44524,25.92462 -29.43164,1.92896 -48.95868,-12.06018 -66.57185,-29.12519 26.73589,-10.47295 55.6857,-35.07377 56.97014,-54.08963 -9.60172,-13.01555 -19.28977,-24.8223 -28.48507,-43.52774 -10.06102,-18.04822 -20.99063,-34.21449 -33.60598,-46.72832"
       id="path7" /><path
       style="fill:none;stroke:#000000;stroke-width:8;stroke-linejoin:round;stroke-dasharray:none;stroke-opacity:1"
       d="m 784.45963,670.83941 c 1.86871,-9.2507 5.12057,-15.04353 3.84068,-32.16573 -2.48904,-7.02706 -6.23557,-11.78634 -0.95233,-32.82989"
       id="path8" /><path
       style="fill:none;stroke:#000000;stroke-width:8;stroke-linecap:round;stroke-linejoin:round;stroke-dasharray:none;stroke-opacity:1"
       d="m 809.30387,725.89813 c 4.74948,4.27184 9.44317,7.70696 14.48074,16.30012"
       id="path9" /><path
       style="fill:none;stroke:#000000;stroke-width:8;stroke-linecap:round;stroke-linejoin:round;stroke-dasharray:none;stroke-opacity:1"
       d="m 755.97456,768.45678 c -7.94486,3.15332 -15.72494,-2.32634 -25.37659,-16.66763 -11.0999,-15.38196 -19.95081,-31.2637 -27.21265,-47.49857"
       id="path10" /><path
       style="fill:none;stroke:#000000;stroke-width:8;stroke-linecap:round;stroke-linejoin:round;stroke-dasharray:none;stroke-opacity:1"
       d="m 567.59665,694.33274 c 20.82093,7.58788 41.64186,10.55285 62.46279,47.07341"
       id="path11" /><path
       style="fill:none;stroke:#000000;stroke-width:8;stroke-linejoin:round;stroke-dasharray:none;stroke-opacity:1"
       d="m 345.80848,856.37389 c -9.86369,-12.13243 -19.88575,-9.2321 -30.77876,-8.14732 -19.27376,5.81011 -33.41729,19.48027 -49.33655,34.3998 -14.86627,14.0181 -23.9222,27.11863 -30.77877,44.35763 -3.16826,24.37583 9.02904,31.48774 21.9525,37.34189 18.3391,-3.23927 35.89777,-13.51124 49.11024,-24.21565 12.99367,-11.04789 25.98733,-25.6019 37.06066,-44.70515 9.21794,-18.76422 7.91315,-32.93656 2.77068,-39.0312 z"
       id="path12" /><path
       style="fill:none;stroke:#000000;stroke-width:8;stroke-linejoin:round;stroke-dasharray:none;stroke-opacity:1"
       d="m 256.8669,964.32589 c 19.26678,5.15357 39.24049,3.30359 59.52071,-2.94209 21.4286,-8.49474 46.84333,-22.15885 59.29438,-42.99975 6.21433,-10.56737 13.25623,-24.55447 5.88418,-49.33655 -7.96603,-15.80464 -20.88887,-20.27079 -30.77877,-22.17882 l -8.88087,5.45974"
       id="path13" /><path
       style="fill:none;stroke:#000000;stroke-width:8;stroke-linecap:round;stroke-linejoin:round;stroke-dasharray:none;stroke-opacity:1"
       d="m 364.3073,932.57432 c 8.04388,7.06079 24.61319,2.75435 41.52494,-2.00868 31.57448,-10.51482 60.33106,-21.73411 87.08064,-33.45515 42.18588,-20.01456 105.72637,-48.11187 110.71456,-55.04061 8.29891,-11.85125 16.32379,-27.81781 1.28023,-64.97156 -12.32553,-25.81887 -36.53218,-50.34733 -52.48934,-58.25037 -16.64567,-9.38679 -35.57401,-17.46919 -61.13088,-21.76387 -22.85581,-3.13203 -39.91674,7.16449 -57.2902,13.76245 -8.57533,23.52806 -17.79077,51.38375 -27.64632,67.14961"
       id="path14" /><path
       style="fill:none;stroke:#000000;stroke-width:8;stroke-linejoin:round;stroke-dasharray:none;stroke-opacity:1"
       d="m 433.99725,710.84653 11.84222,-37.78735 c 3.79281,-9.07959 0.32687,-13.53998 -2.26314,-18.55778 0.41751,-7.30033 5.55099,-11.95946 8.82626,-16.97358 14.84904,-9.15555 16.49925,-19.83404 15.84201,-30.77877 -7.56411,-12.53536 -16.20034,-20.4249 -25.57353,-25.12091 -22.77592,-12.67147 -40.76744,-23.74815 -60.19964,-35.30505 -18.92081,-7.29184 -38.26383,-9.72823 -58.38913,-3.1684 -13.74831,4.70943 -20.95126,14.00061 -22.63145,27.15773 1.59533,13.0174 4.98949,13.62258 9.5052,17.87884 14.87776,11.25375 33.23701,6.40173 50.24182,14.71044 14.80955,7.11182 28.21721,16.92977 41.64186,27.15774 14.3004,8.76904 30.28752,12.25602 46.7086,11.41076"
       id="path15" /><path
       style="fill:none;stroke:#000000;stroke-width:8;stroke-linejoin:round;stroke-dasharray:none;stroke-opacity:1"
       d="m 310.95605,588.19126 47.87355,47.11224 c 12.4224,9.60254 24.37471,15.55458 37.22069,19.65053 17.8798,3.41525 34.45068,4.53989 47.52604,-0.45263"
       id="path16" /><path
       style="fill:none;stroke:#000000;stroke-width:8;stroke-linecap:round;stroke-linejoin:round;stroke-dasharray:none;stroke-opacity:1"
       d="m 358.8296,635.3035 c -7.60697,0.58183 -11.37708,4.4524 -13.02112,10.14532 -10.41046,26.6232 -20.82093,53.51959 -31.23139,85.99949 -6.13582,17.76321 -17.75679,52.18779 -14.0315,66.98908 3.95852,12.13079 10.43871,22.4604 20.3683,30.32614 12.34712,6.50634 20.39088,8.7093 28.58832,11.06596 5.38763,-0.0321 10.77525,0.17284 16.16288,-1.60029 32.60073,-19.60538 65.35231,-38.7582 97.13729,-60.81082 -4.22611,-4.69765 -6.9034,-13.5255 -9.92177,-21.44382"
       id="path17" /><path
       style="fill:none;stroke:#000000;stroke-width:8;stroke-linejoin:round;stroke-dasharray:none;stroke-opacity:1"
       d="m 603.62744,842.06988 c 12.33642,0.33768 35.57556,-8.0296 67.53203,-28.16501 20.22525,-13.96036 38.35996,-31.51722 59.4385,-62.11572"
       id="path18" /><path
       style="fill:none;stroke:#000000;stroke-width:8;stroke-linejoin:round;stroke-dasharray:none;stroke-opacity:1"
       d="m 646.13523,585.65234 c -15.39363,4.31628 -24.6053,10.25939 -31.94591,16.69488 -9.45814,6.52238 -44.73704,46.59263 -54.40968,54.08962 -15.37992,10.60663 -32.95112,20.11763 -53.44952,28.16502 -5.16208,2.03329 -10.6783,3.81035 -15.04267,12.48222"
       id="path19" /><ellipse
       style="display:inline;fill:#000000;fill-opacity:1;stroke:none;stroke-width:7.38058;stroke-linejoin:round;stroke-dasharray:none;stroke-opacity:1"
       id="ellipse79"
       cx="822.7901"
       cy="467.13028"
       rx="4.7244096"
       ry="9.4488192" /></g><g
     id="layer3"
     style="display:inline;stroke:#000000;stroke-width:8;stroke-dasharray:none;stroke-opacity:1"><g
       id="layer6"><path
         style="display:inline;fill:#ffdf1b;fill-opacity:1;stroke:none;stroke-width:8;stroke-linecap:round;stroke-linejoin:round;stroke-dasharray:none;stroke-opacity:1"
         d="m 1134.5144,687.76962 -48.884,-14.71044 -32.8878,-37.40459 -19.5987,40.30573 c -12.3756,5.78563 -23.055,12.1584 -42.88764,15.36273 -6.99879,-4.11601 -12.95287,-8.80186 -16.64296,-14.72262 l -8.64154,-3.68066 -18.24325,-17.4431 c 15.0075,-3.4255 25.66785,-10.50012 27.5249,-24.96444 L 960.17091,556.89913 960,540 c 7.29054,-23.96795 16.81232,-45.35388 36.6574,-54.79364 21.3046,-9.88348 38.7972,-6.74024 55.0498,0.64012 l 13.9529,8.28692 1.6389,-11.63099 25.6866,-22.85776 c 24.4197,-15.55984 49.406,-28.39112 76.6075,-30.55245 37.9423,-4.74071 71.2367,2.35281 101.8415,16.29464 17.9409,13.85788 34.8314,29.11367 41.5287,57.9365 l -9.7315,24.78144 c -6.4271,4.09854 -12.1851,14.12384 -19.8034,7.67059 l -16.8029,33.12589 -15.3627,4.16075 -8.5701,22.82394 -20.3683,-2.03682 -15.8421,16.29464 c -6.8947,13.83656 -2.3761,26.63374 2.7158,39.37871 l -23.0841,28.06299 c -16.5349,10.3104 -33.9203,11.77524 -51.5996,10.18415 z"
         id="path57" /><path
         style="display:inline;fill:#fee4cd;fill-opacity:1;stroke:none;stroke-width:8;stroke-linecap:round;stroke-linejoin:round;stroke-dasharray:none;stroke-opacity:1"
         d="m 1214.3779,719.99393 -27.2454,-16.83492 -52.6181,-15.38939 c 17.3303,-0.53403 34.7854,1.67241 51.5996,-10.18415 l 23.0841,-28.06299 -2.7158,-39.37871 15.8421,-16.29464 20.3683,2.03682 8.5701,-22.82394 15.3627,-4.16075 16.8029,-31.08906 19.8034,-9.70742 11.6552,46.73393 c 2.8991,13.25177 10.3866,15.17876 17.6525,17.65253 l 1.3579,18.10515 -2.2632,14.0315 -1.3829,19.19283 -6.6067,15.05872 c -10.7107,19.26342 -26.0151,32.08762 -44.5153,40.43222 l -20.3746,4.88101 -23.0778,1.45579 z"
         id="path58" /><path
         style="display:inline;fill:#fee4cd;fill-opacity:1;stroke:none;stroke-width:8;stroke-linecap:round;stroke-linejoin:round;stroke-dasharray:none;stroke-opacity:1"
         d="m 1240.5408,857.11256 -11.522,-4.4808 c 22.3025,-8.05194 33.7641,-27.91748 47.3684,-45.44808 l 2.96,-6.17083 -6.012,-16.55322 -5.7661,-6.526 0.1766,-32.52095 -6.7212,-19.20342 -2.2698,-22.01659 20.3746,-4.88101 c 15.6994,-7.34754 30.5383,-17.54496 42.5471,-37.11557 l 1.9682,-3.31665 6.6067,-15.05872 16.2284,29.57914 -12.4823,37.76672 -22.4039,18.56331 23.3641,77.13373 -5.441,54.72974 c -10.4573,12.90299 -22.8736,21.94497 -42.5675,16.64296 z"
         id="path59" /><path
         style="display:inline;fill:#ffffff;fill-opacity:1;stroke:none;stroke-width:8;stroke-linecap:round;stroke-linejoin:round;stroke-dasharray:none;stroke-opacity:1"
         d="m 981.7521,764.71654 c 26.1317,-9.18516 51.2522,-21.52004 72.5156,-45.86859 25.8033,-26.32769 50.876,-34.70428 75.4735,-31.40847 l 57.3913,15.71953 31.6008,20.43782 48.8358,54.3368 5.7661,6.526 6.012,16.55322 -2.96,6.17083 c -12.0435,20.81097 -27.6165,36.28753 -47.3684,45.44808 l -18.5633,-1.60028 -16.834,-17.18555 -46.4335,45.15941 -50.9208,19.91567 c 1.6799,-28.14756 -6.3598,-48.63102 -16.5209,-67.44171 l -45.4892,-44.35763 z"
         id="path60" /><path
         style="display:inline;fill:#5aafe6;fill-opacity:1;stroke:none;stroke-width:8;stroke-linecap:round;stroke-linejoin:round;stroke-dasharray:none;stroke-opacity:1"
         d="m 820.16358,827.85827 44.81026,-23.5367 54.31547,-33.04191 62.46279,-6.56312 52.505,22.40513 45.4892,44.35763 c 14.5014,25.3571 17.4666,47.02477 16.5209,67.44171 -6.1905,22.19416 -18.9422,33.13833 -32.5893,42.54711 l -52.0523,30.09983 c -16.25025,0.56945 -20.14634,-12.16938 -27.83667,-20.82093 l -7.1841,-12.4973 -11.82632,-21.44987 -29.42088,-30.77877 -25.31925,-13.8807 -25.95371,-4.8694 -6.64849,4.72423 -29.92533,-26.08464 z"
         id="path61" /><path
         style="display:inline;fill:#1e5375;fill-opacity:1;stroke:none;stroke-width:8;stroke-linecap:round;stroke-linejoin:round;stroke-dasharray:none;stroke-opacity:1"
         d="m 821.06884,858.63703 -5.88418,-18.10515 0.41212,-8.91137 31.91407,14.29006 z"
         id="path62" /><path
         style="display:inline;fill:#1e5375;fill-opacity:1;stroke:none;stroke-width:8;stroke-linecap:round;stroke-linejoin:round;stroke-dasharray:none;stroke-opacity:1"
         d="m 891.0386,888.95823 -13.60242,-16.96302 6.64849,-4.72423 25.95371,4.8694 z"
         id="path63" /><path
         style="display:inline;fill:#1e5375;fill-opacity:1;stroke:none;stroke-width:8;stroke-linecap:round;stroke-linejoin:round;stroke-dasharray:none;stroke-opacity:1"
         d="m 976.60483,938.24972 7.1841,12.4973 27.83667,20.82093 c -22.70633,4.25716 -43.29083,-0.46535 -60.1774,-20.83774 z"
         id="path64" /><path
         style="display:inline;fill:#fee4cd;fill-opacity:1;stroke:none;stroke-width:8;stroke-linecap:round;stroke-linejoin:round;stroke-dasharray:none;stroke-opacity:1"
         d="m 976.60483,938.24972 -25.15663,12.48049 -45.73776,12.91673 -78.92716,1.16821 7.92529,-13.9259 8.00143,-35.20626 -9.92177,-25.92462 -22.08393,-10.56188 c -14.13432,-4.78653 -27.0286,0.47549 -39.36701,10.24183 l -21.44381,17.92319 c 8.62252,-21.1638 10.38558,-38.45077 6.40114,-52.48935 l 37.61648,4.2175 27.15774,-0.45263 26.44201,-12.72646 29.92533,26.08464 13.60242,16.96302 18.99978,-16.81785 25.31925,13.8807 29.42088,30.77877 z"
         id="path65" /><path
         style="display:inline;fill:#572e04;fill-opacity:1;stroke:none;stroke-width:8;stroke-linecap:round;stroke-linejoin:round;stroke-dasharray:none;stroke-opacity:1"
         d="m 728.73254,835.10033 c 6.95046,3.07865 6.39661,15.80794 8.14732,25.57353 l -13.57887,37.34189 -36.66294,51.59969 c -13.85643,11.59859 -27.47933,24.81605 -43.22606,23.31039 -12.34014,-4.5414 -17.18043,-14.98113 -19.23673,-27.61036 -2.48582,-22.84914 7.47148,-31.85186 14.48413,-44.13132 l 33.49454,-43.45237 c 18.31446,-13.80541 36.1808,-32.75852 56.57861,-22.63145 z"
         id="path66" /><path
         style="display:inline;fill:#572e04;fill-opacity:1;stroke:none;stroke-width:8;stroke-linecap:round;stroke-linejoin:round;stroke-dasharray:none;stroke-opacity:1"
         d="m 810.7043,879.19649 c -16.44863,-5.67349 -27.79742,2.58579 -39.36701,10.24183 l -26.0838,32.00098 -24.16514,43.53246 -0.32006,35.84634 14.72262,9.6018 33.28593,-14.72267 34.56615,-46.40826 16.73671,-39.21835 c 1.0623,-14.28533 2.17097,-28.61489 -9.3754,-30.87413 z"
         id="path67" /><path
         style="display:inline;fill:#984f06;fill-opacity:1;stroke:none;stroke-width:8;stroke-linecap:round;stroke-linejoin:round;stroke-dasharray:none;stroke-opacity:1"
         d="m 643.41199,972.92583 c 19.92647,-0.87862 31.1675,-12.60504 43.22606,-23.31039 l 36.66294,-51.59969 13.57887,-37.34189 -1.06676,-22.73466 20.48152,16.93296 c 0.61285,14.57823 -2.20679,32.80347 -6.40114,52.48935 l -32.96587,41.28735 -48.64866,26.56472 z"
         id="path68" /><path
         style="display:inline;fill:#984f06;fill-opacity:1;stroke:none;stroke-width:8;stroke-linecap:round;stroke-linejoin:round;stroke-dasharray:none;stroke-opacity:1"
         d="m 810.7043,879.19649 22.08393,10.56188 9.92177,25.92462 -8.00143,35.20626 -7.92529,13.9259 -21.51995,24.16088 -46.0882,24.64437 -23.68422,-3.2005 33.28593,-14.72267 34.56615,-46.40826 16.73671,-39.21835 c 1.7629,-13.24754 2.79888,-26.05547 -9.3754,-30.87413 z"
         id="path69" /></g><path
       style="fill:none;stroke:#000000;stroke-width:8;stroke-linejoin:round;stroke-dasharray:none;stroke-opacity:1"
       d="m 1065.3097,521.69286 c -0.6513,11.65442 -10.6716,14.26413 -17.7632,32.48578 -5.7898,28.70899 6.9375,58.01952 6.081,69.29233 -0.7612,30.45696 -10.5438,41.64114 -20.4836,52.48935 -25.3548,19.19595 -32.6004,15.64924 -42.88764,15.36273 -6.43191,-1.24389 -15.66225,-3.29087 -16.64296,-14.72262 11.25217,-4.29143 19.10798,-15.1815 22.56401,-29.28521 -9.46291,19.72114 -22.16845,25.89655 -31.20555,25.60455 -12.16482,-2.49596 -15.25098,-9.94392 -18.24325,-17.4431 12.55958,-2.22918 23.42707,-7.50411 27.5249,-24.96444 0.32076,-27.75475 -16.01043,-60.92455 -14.0825,-73.6131 1.43888,-29.31249 8.57158,-54.71684 36.48649,-71.69277 17.2179,-6.41726 34.8796,-10.23476 55.0498,0.64012 12.9712,9.19934 13.0361,19.90472 13.6025,35.84638 z"
       id="path20" /><path
       style="fill:none;stroke:#000000;stroke-width:8;stroke-linecap:round;stroke-linejoin:round;stroke-dasharray:none;stroke-opacity:1"
       d="m 1065.3097,521.69286 c -15.5555,-4.74462 -19.0719,-3.00665 -23.2042,-1.60029 -8.2319,3.50806 -11.8554,8.80826 -14.7226,14.40257"
       id="path21" /><path
       style="fill:none;stroke:#000000;stroke-width:8;stroke-linejoin:round;stroke-dasharray:none;stroke-opacity:1"
       d="m 1060.5901,495.18689 c 7.9216,-1.69064 15.9344,-3.80747 22.0982,2.70491 6.0551,7.19711 7.3243,18.33048 6.3368,27.15773 -4.1206,15.12815 -7.3758,18.73857 -11.7683,21.04725 -5.0294,2.26156 -11.5704,3.02123 -17.1999,-1.01842 l -5.3248,-4.23777"
       id="path22" /><path
       style="fill:none;stroke:#000000;stroke-width:8;stroke-linecap:round;stroke-linejoin:round;stroke-dasharray:none;stroke-opacity:1"
       d="m 1087.2509,506.19621 c 6.1978,-4.56759 13.2708,-9.17125 19.2554,-11.34025"
       id="path23" /><path
       style="fill:none;stroke:#000000;stroke-width:8;stroke-linecap:round;stroke-linejoin:round;stroke-dasharray:none;stroke-opacity:1"
       d="m 1085.624,535.36247 c 5.55,25.05685 14.4851,24.48825 21.0537,28.83946"
       id="path24" /><path
       style="fill:none;stroke:#000000;stroke-width:8;stroke-linecap:round;stroke-linejoin:round;stroke-dasharray:none;stroke-opacity:1"
       d="m 1068.0201,547.91873 c -1.5219,17.64948 -1.4863,29.64792 2.6736,41.17779"
       id="path25" /><path
       style="fill:none;stroke:#000000;stroke-width:8;stroke-linecap:round;stroke-linejoin:round;stroke-dasharray:none;stroke-opacity:1"
       d="m 1237.9401,659.70663 c -7.8513,3.71415 -21.7971,-0.0971 -28.742,-10.18415 -9.5107,-18.94247 -5.972,-32.81623 -2.7158,-39.37871 4.497,-7.75341 7.7413,-13.2594 15.8421,-16.29464 8.4423,-2.59419 14.3735,-2.98303 20.3683,2.03682 3.0368,2.68682 5.1351,6.21557 6.4499,11.20257"
       id="path26" /><path
       style="fill:none;stroke:#000000;stroke-width:8;stroke-linecap:round;stroke-linejoin:round;stroke-dasharray:none;stroke-opacity:1"
       d="m 1242.6927,595.88595 c 4.6224,-6.84557 6.7176,-14.27382 8.5701,-22.82394 3.4114,-17.28867 3.7751,-33.61397 0.1599,-44.96801"
       id="path27" /><path
       style="fill:none;stroke:#000000;stroke-width:8;stroke-linecap:round;stroke-linejoin:round;stroke-dasharray:none;stroke-opacity:1"
       d="m 1251.2628,573.06201 c 5.8296,1.09341 11.3266,1.02291 15.3627,-4.16075 9.9491,-10.09671 13.6822,-21.54474 16.8029,-33.12589 3.5312,-14.86326 -3.0641,-32.84169 -7.6813,-40.00713"
       id="path28" /><path
       style="fill:none;stroke:#000000;stroke-width:8;stroke-linejoin:round;stroke-dasharray:none;stroke-opacity:1"
       d="m 1283.4284,537.8122 c 5.482,1.47951 10.7479,-0.46641 19.8034,-9.70742 4.7997,-5.71452 10.8279,-15.97486 9.7315,-24.78144 -2.9355,-23.57898 -26.862,-48.7018 -41.5287,-57.9365 -50.1413,-21.28857 -78.1486,-18.55671 -101.8415,-16.29464 -30.7065,3.79684 -56.3867,16.34531 -76.6075,30.55245 -10.7699,7.87655 -21.174,15.91101 -25.6866,22.85776 -2.1467,2.80128 -3.4324,5.8284 -1.6389,11.63099"
       id="path29" /><path
       style="fill:none;stroke:#000000;stroke-width:8;stroke-linejoin:round;stroke-dasharray:none;stroke-opacity:1"
       d="m 1209.1981,649.52248 c -3.2127,7.81432 -8.0236,18.00829 -23.0841,28.06299 -16.8546,10.30092 -34.1444,11.8958 -51.5996,10.18415 -17.0977,-0.88819 -33.5921,-4.79299 -48.884,-14.71044 -16.9947,-12.82337 -26.0672,-25.18028 -32.8878,-37.40459"
       id="path30" /><path
       style="fill:none;stroke:#000000;stroke-width:8;stroke-linecap:round;stroke-linejoin:round;stroke-dasharray:none;stroke-opacity:1"
       d="m 1228.8875,617.83846 c -0.2039,6.63856 0.3027,13.27711 7.242,19.91567"
       id="path31" /><path
       style="fill:none;stroke:#000000;stroke-width:8;stroke-linecap:round;stroke-linejoin:round;stroke-dasharray:none;stroke-opacity:1"
       d="m 981.7521,764.71654 c 28.7079,-8.93914 52.8603,-24.25585 72.5156,-45.86859 27.9999,-33.55894 52.266,-36.78382 75.4735,-31.40847 20.3373,3.63072 40.5958,7.3664 57.3913,15.71953 9.3625,5.05591 17.6532,8.50422 31.6008,20.43782 17.5656,14.41304 31.2488,34.8514 54.6019,60.8628 6.0426,5.5483 9.4392,13.62042 3.052,22.72405 -22.2101,34.83927 -33.7442,36.93894 -47.3684,45.44808 -7.6345,4.16833 -13.32,2.00279 -18.5633,-1.60028 -17.2956,-14.13956 -24.8279,-29.16669 -36.1665,-43.8478"
       id="path32" /><path
       style="fill:none;stroke:#000000;stroke-width:8;stroke-linejoin:round;stroke-dasharray:none;stroke-opacity:1"
       d="m 1303.2318,528.10478 c 5.0598,11.5318 9.3012,25.88214 11.6552,46.73393 1.013,14.58535 13.6471,14.0331 17.6525,17.65253 4.9708,3.95914 7.4706,13.0141 1.3579,18.10515 -5.5296,4.38297 -3.1782,8.7393 -2.2632,14.0315 1.1618,19.07277 -3.6984,27.09233 -9.9578,37.5682 -12.7262,19.57383 -22.7804,26.95146 -42.5471,37.11557 -15.5739,6.03531 -29.2976,5.41024 -43.4524,6.3368 -8.3335,1.08026 -15.6767,5.13166 -21.299,14.34547"
       id="path33" /><path
       style="fill:none;stroke:#000000;stroke-width:8;stroke-linecap:round;stroke-linejoin:round;stroke-dasharray:none;stroke-opacity:1"
       d="m 1300.3115,644.27468 c 4.1415,10.98764 10.4934,18.25552 23.3331,14.60476 5.6968,12.81057 8.0131,25.94309 -4.0497,40.44504"
       id="path34" /><path
       style="fill:none;stroke:#000000;stroke-width:8;stroke-linejoin:round;stroke-dasharray:none;stroke-opacity:1"
       d="m 1258.7547,704.19267 c -0.1167,5.8833 -2.2782,14.88415 2.2698,22.01659 7.5602,10.79574 6.3892,13.85728 6.7212,19.20342 l -0.1766,32.52095"
       id="path35" /><path
       style="fill:none;stroke:#000000;stroke-width:8;stroke-linejoin:round;stroke-dasharray:none;stroke-opacity:1"
       d="m 1330.2513,643.82072 c 9.5555,4.47135 13.7801,14.47842 16.2284,29.57914 -0.076,21.16719 -6.5807,28.83359 -12.4823,37.76672 -8.3732,10.08687 -14.9359,13.5195 -22.4039,18.56331 11.3429,25.41501 19.2628,51.11526 23.3641,77.13373 4.3689,35.14226 -1.0972,43.40209 -5.441,54.72974 -13.8771,19.65842 -28.4537,18.41355 -42.5675,16.64296 -16.3552,-3.05515 -32.0846,-11.19 -46.4083,-21.12376 -3.2806,-3.00738 -6.8012,-4.42874 -11.522,-4.4808"
       id="path36" /><path
       style="fill:none;stroke:#000000;stroke-width:8;stroke-linecap:round;stroke-linejoin:round;stroke-dasharray:none;stroke-opacity:1"
       d="m 1279.3472,801.01285 c 8.1512,5.3084 14.8253,10.86299 19.3583,16.77443"
       id="path37" /><path
       style="fill:none;stroke:#000000;stroke-width:8;stroke-linejoin:round;stroke-dasharray:none;stroke-opacity:1"
       d="m 728.73254,835.10033 c -27.51666,-7.89169 -42.7712,11.12786 -56.57861,22.63145 -13.61807,15.88596 -24.07546,29.96583 -33.49454,43.45237 -9.63162,14.05541 -17.92836,28.29284 -14.48413,44.13132 1.53147,9.39118 2.45188,18.80585 19.23673,27.61036 10.18999,0.19852 22.28117,-3.19409 43.22606,-23.31039 11.59841,-15.19384 20.17806,-20.66054 36.66294,-51.59969 4.90846,-10.66386 10.36826,-18.75477 13.57887,-37.34189 1.95779,-20.20843 -3.02274,-23.07105 -8.14732,-25.57353 z"
       id="path38" /><path
       style="fill:none;stroke:#000000;stroke-width:8;stroke-linejoin:round;stroke-dasharray:none;stroke-opacity:1"
       d="m 728.73254,835.10033 c 8.51628,4.51635 14.77216,2.04602 27.56208,19.77183 3.88963,11.10806 2.13216,35.94987 -6.40114,52.48935 -7.48432,16.4866 -20.15563,32.28406 -32.96587,41.28735 -23.39562,19.16378 -36.88202,24.09895 -48.64866,26.56472 -9.82738,1.33003 -17.98286,0.40777 -24.86696,-2.28775"
       id="path39" /><path
       style="fill:none;stroke:#000000;stroke-width:8;stroke-linejoin:round;stroke-dasharray:none;stroke-opacity:1"
       d="m 810.7043,879.19649 c -13.70591,-3.73482 -26.86784,-0.80594 -39.36701,10.24183 -14.41032,13.94918 -18.43107,21.93227 -26.0838,32.00098 -9.75359,14.02552 -17.38596,28.65711 -24.16514,43.53246 -4.11632,10.51677 -7.89806,25.31377 -0.32006,35.84634 3.18551,3.2006 4.66134,6.4012 14.72262,9.6018 10.08238,1.9297 21.51072,-5.2258 33.28593,-14.72267 11.40528,-11.3826 22.86219,-24.57211 34.56615,-46.40826 5.77215,-9.75026 12.84761,-21.99667 16.73671,-39.21835 2.36821,-14.54251 2.0284,-25.91216 -9.3754,-30.87413 z"
       id="path40" /><path
       style="fill:none;stroke:#000000;stroke-width:8;stroke-linejoin:round;stroke-dasharray:none;stroke-opacity:1"
       d="m 735.49091,1010.4199 c 11.84913,3.6951 15.04105,4.715 23.68422,3.2005 16.27711,-3.0943 32.26356,-12.5531 46.0882,-24.64437 10.55015,-9.38708 19.04615,-17.60669 29.44524,-38.08678 4.22204,-6.81158 7.38587,-16.97415 8.00143,-35.20626 -1.12914,-8.25259 -0.72268,-16.23097 -9.92177,-25.92462 -9.18124,-7.17437 -15.5194,-8.64089 -22.08393,-10.56188"
       id="path41" /><path
       style="fill:none;stroke:#000000;stroke-width:8;stroke-linejoin:round;stroke-dasharray:none;stroke-opacity:1"
       d="m 981.7521,764.71654 c -34.54826,-3.48228 -46.64298,2.30973 -62.46279,6.56312 -16.93304,6.09108 -35.25329,18.00845 -54.31547,33.04191 -12.26973,9.32725 -28.86622,16.25073 -44.81026,23.5367 -5.31511,2.80297 -7.34155,6.88486 -4.97892,12.67361 2.51221,5.2639 5.4102,9.98772 5.88418,18.10515 -6.01854,1.45118 -12.36175,2.76321 -27.15774,0.45263 -13.10875,-4.44543 -25.78485,-6.58336 -37.61648,-4.2175"
       id="path42" /><path
       style="fill:none;stroke:#000000;stroke-width:8;stroke-linejoin:round;stroke-dasharray:none;stroke-opacity:1"
       d="m 815.59678,831.62051 c 6.75636,1.69888 9.77638,0.44802 31.91407,14.29006 10.7089,7.04385 20.91663,15.21533 29.92533,26.08464 4.76958,4.94802 9.25857,10.7378 13.60242,16.96302 -9.20008,4.8594 -19.28968,6.7537 -29.7653,7.36131 -23.68208,0.39158 -22.05621,-3.81681 -28.48507,-6.56117"
       id="path43" /><path
       style="fill:none;stroke:#000000;stroke-width:8;stroke-linejoin:round;stroke-dasharray:none;stroke-opacity:1"
       d="m 821.06884,858.63703 c 11.01359,-2.67102 21.32027,-5.84697 26.44201,-12.72646"
       id="path44" /><path
       style="fill:none;stroke:#000000;stroke-width:8;stroke-linecap:round;stroke-linejoin:round;stroke-dasharray:none;stroke-opacity:1"
       d="m 877.43618,871.99521 c 14.96738,-10.35218 30.74739,-22.77288 52.26359,-49.7948"
       id="path45" /><path
       style="fill:none;stroke:#000000;stroke-width:8;stroke-linejoin:round;stroke-dasharray:none;stroke-opacity:1"
       d="m 884.08467,867.27098 c 15.16105,3.82408 23.49628,-0.93197 51.27296,18.7501 9.49863,6.25136 20.45037,17.02209 29.42088,30.77877 6.15364,9.85038 11.13986,21.22455 19.01042,33.94717 9.53887,14.47975 18.89897,23.77522 27.83667,20.82093 12.4951,-7.95228 31.3217,-18.81203 52.0523,-30.09983 14.053,-8.40238 31.2016,-27.73305 32.5893,-42.54711 1.8699,-15.7422 -1.3677,-40.1715 -16.5209,-67.44171 -13.7359,-21.06264 -28.5346,-33.87138 -45.4892,-44.35763 -20.7192,-12.9338 -33.5194,-16.84461 -52.505,-22.40513"
       id="path46" /><path
       style="fill:none;stroke:#000000;stroke-width:8;stroke-linejoin:round;stroke-dasharray:none;stroke-opacity:1"
       d="m 1193.6215,833.84593 c -10.9843,13.01168 -20.589,26.62462 -46.4335,45.15941 -27.503,16.81701 -41.4109,20.49204 -50.9208,19.91567"
       id="path47" /><path
       style="fill:none;stroke:#000000;stroke-width:8;stroke-linejoin:round;stroke-dasharray:none;stroke-opacity:1"
       d="m 826.78328,964.81515 c 29.97871,2.27944 55.57062,1.36847 78.92716,-1.16821 22.30708,-2.1749 46.17832,-11.77958 70.89439,-25.39722"
       id="path48" /><path
       style="fill:none;stroke:#000000;stroke-width:8;stroke-linejoin:round;stroke-dasharray:none;stroke-opacity:1"
       d="m 951.4482,950.73021 c 5.14457,10.31351 40.35959,29.60875 60.1774,20.83774"
       id="path49" /><path
       style="fill:none;stroke:#00000f;stroke-width:8;stroke-linejoin:round;stroke-dasharray:none;stroke-opacity:1"
       d="m 891.0386,888.95823 c 23.95994,-13.6364 17.66227,-14.63001 18.99978,-16.81785"
       id="path50" /><ellipse
       style="fill:#000000;fill-opacity:1;stroke:none;stroke-width:7.38058;stroke-linejoin:round"
       id="path79"
       cx="1293.9139"
       cy="590.03217"
       rx="4.7244096"
       ry="9.4488192" /></g></svg>
