<?xml version="1.0" encoding="UTF-8" standalone="no"?>
<!-- Created with Inkscape (http://www.inkscape.org/) -->

<svg
   width="1920"
   height="1080"
   viewBox="0 0 1920 1080"
   version="1.1"
   id="svg1"
   xml:space="preserve"
   xmlns="http://www.w3.org/2000/svg"
   xmlns:svg="http://www.w3.org/2000/svg"><defs
     id="defs1"><filter
       style="color-interpolation-filters:sRGB"
       id="filter38"
       x="-0.0098236751"
       y="-0.0056551858"
       width="1.0653007"
       height="1.1060731"><feFlood
         result="flood"
         in="SourceGraphic"
         flood-opacity="0.403922"
         flood-color="rgb(0,0,0)"
         id="feFlood37" /><feGaussianBlur
         result="blur"
         in="SourceGraphic"
         stdDeviation="0.000000"
         id="feGaussianBlur37" /><feOffset
         result="offset"
         in="blur"
         dx="22.566964285714278"
         dy="46.242559523809547"
         id="feOffset37" /><feComposite
         result="comp1"
         operator="in"
         in="flood"
         in2="offset"
         id="feComposite37" /><feComposite
         result="comp2"
         operator="over"
         in="SourceGraphic"
         in2="comp1"
         id="feComposite38" /></filter></defs><g
     id="layer5"><rect
       style="display:inline;fill:#363c45;fill-opacity:1;stroke:none;stroke-width:6;stroke-linecap:round;stroke-linejoin:round;stroke-dasharray:none;stroke-opacity:1"
       id="rect31"
       width="1920"
       height="1080"
       x="0"
       y="0" /><rect
       style="opacity:0.501336;fill:#f0eeed;fill-opacity:1;stroke:none;stroke-width:1.62485;stroke-linecap:round;stroke-linejoin:round;stroke-dasharray:none;stroke-opacity:1"
       id="rect32"
       width="566.92914"
       height="113.38583"
       x="0"
       y="193.32283" /><rect
       style="opacity:0.501336;fill:#efb476;fill-opacity:1;stroke:none;stroke-width:4.82527;stroke-linecap:round;stroke-linejoin:round;stroke-dasharray:none;stroke-opacity:1"
       id="rect32-3"
       width="1322.8346"
       height="113.38583"
       x="0"
       y="0" /><rect
       style="opacity:0.501336;fill:#626f85;fill-opacity:1;stroke:none;stroke-width:3.64756;stroke-linecap:round;stroke-linejoin:round;stroke-dasharray:none;stroke-opacity:1"
       id="rect32-2"
       width="755.90552"
       height="113.38583"
       x="0"
       y="386.64566" /><rect
       style="opacity:0.501336;fill:#f0eeed;fill-opacity:1;stroke:none;stroke-width:2.65338;stroke-linecap:round;stroke-linejoin:round;stroke-dasharray:none;stroke-opacity:1"
       id="rect32-6"
       width="1511.811"
       height="113.38583"
       x="0"
       y="773.29132" /><rect
       style="opacity:0.501336;fill:#efb476;fill-opacity:1;stroke:none;stroke-width:2.57921;stroke-linecap:round;stroke-linejoin:round;stroke-dasharray:none;stroke-opacity:1"
       id="rect32-3-1"
       width="377.95276"
       height="113.38583"
       x="0"
       y="579.96851" /><rect
       style="opacity:0.501336;fill:#626f85;fill-opacity:1;stroke:none;stroke-width:3.15888;stroke-linecap:round;stroke-linejoin:round;stroke-dasharray:none;stroke-opacity:1"
       id="rect32-2-2"
       width="566.92914"
       height="113.38583"
       x="0"
       y="966.61414" /><rect
       style="opacity:0.501336;fill:#f0eeed;fill-opacity:1;stroke:none;stroke-width:2.48201;stroke-linecap:round;stroke-linejoin:round;stroke-dasharray:none;stroke-opacity:1"
       id="rect32-4"
       width="1322.8346"
       height="113.38583"
       x="597.16541"
       y="966.61401" /><rect
       style="opacity:0.501336;fill:#efb476;fill-opacity:1;stroke:none;stroke-width:2.57921;stroke-linecap:round;stroke-linejoin:round;stroke-dasharray:none;stroke-opacity:1"
       id="rect32-3-7"
       width="377.95276"
       height="113.38583"
       x="1542.0472"
       y="773.29126" /><rect
       style="opacity:0.501336;fill:#626f85;fill-opacity:1;stroke:none;stroke-width:5.15843;stroke-linecap:round;stroke-linejoin:round;stroke-dasharray:none;stroke-opacity:1"
       id="rect32-2-8"
       width="1511.811"
       height="113.38583"
       x="408.18896"
       y="-693.35425"
       transform="scale(1,-1)" /><rect
       style="opacity:0.501336;fill:#f0eeed;fill-opacity:1;stroke:none;stroke-width:1.62485;stroke-linecap:round;stroke-linejoin:round;stroke-dasharray:none;stroke-opacity:1"
       id="rect32-6-4"
       width="566.92914"
       height="113.38583"
       x="1353.0708"
       y="0" /><rect
       style="opacity:0.501336;fill:#efb476;fill-opacity:1;stroke:none;stroke-width:3.64756;stroke-linecap:round;stroke-linejoin:round;stroke-dasharray:none;stroke-opacity:1"
       id="rect32-3-1-5"
       width="755.90552"
       height="113.38583"
       x="1164.0945"
       y="-500.0314"
       transform="scale(1,-1)" /><rect
       style="display:inline;opacity:0.501336;fill:#626f85;fill-opacity:1;stroke:none;stroke-width:4.82527;stroke-linecap:round;stroke-linejoin:round;stroke-dasharray:none;stroke-opacity:1"
       id="rect32-2-2-0"
       width="1322.8346"
       height="113.38583"
       x="597.16541"
       y="193.32281" /></g><g
     id="layer2"
     style="display:inline"><g
       id="g32"
       transform="matrix(1.6787918,0,0,1.6787918,-560.61627,-286.13026)"
       style="filter:url(#filter38)"><path
         style="display:inline;fill:#f8f6f0;fill-opacity:1;stroke:none;stroke-width:6;stroke-linecap:round;stroke-linejoin:round;stroke-dasharray:none;stroke-opacity:1"
         d="m 779.01866,364.86494 323.25754,19.20342 49.2888,24.32433 -23.6138,330.29768 -5.4315,7.24207 -354.86108,-37.11557 -55.22072,-26.25248 15.38505,-53.70848 -76.82708,-23.94824 c 41.7135,-26.9359 79.1334,-61.2378 99.85778,-124.1821 z"
         id="path25" /><path
         style="fill:#dddddd;fill-opacity:1;stroke:none;stroke-width:6;stroke-linecap:round;stroke-linejoin:round;stroke-dasharray:none;stroke-opacity:1"
         d="m 712.4379,682.56439 c 256.72432,2.92711 322.2171,13.30153 367.6449,-104.19482 l -18.2154,142.21565 z"
         id="path26" /><path
         style="fill:none;fill-opacity:1;stroke:#cccccc;stroke-width:6;stroke-linecap:round;stroke-linejoin:round;stroke-dasharray:none;stroke-opacity:1"
         d="m 1112.279,390.32294 c -9.9056,116.63189 -16.8058,253.29999 -31.8198,335.87572"
         id="path27" /><path
         style="fill:none;fill-opacity:1;stroke:#cccccc;stroke-width:6;stroke-linecap:round;stroke-linejoin:round;stroke-dasharray:none;stroke-opacity:1"
         d="m 1126.4211,398.10112 c -7.7432,112.28662 -12.6669,226.45289 -23.9558,336.37572"
         id="path28" /><path
         style="fill:none;fill-opacity:1;stroke:#cccccc;stroke-width:6;stroke-linecap:round;stroke-linejoin:round;stroke-dasharray:none;stroke-opacity:1"
         d="m 1144.8059,405.17219 -25.1201,338.28993"
         id="path29" /><path
         style="fill:#cccccc;fill-opacity:1;stroke:none;stroke-width:6;stroke-linecap:round;stroke-linejoin:round;stroke-dasharray:none;stroke-opacity:1"
         d="m 712.4379,682.56439 349.4295,38.02083 57.8184,22.8769 -352.02718,-34.64525 z"
         id="path30" /><path
         style="display:inline;fill:#1e2329;fill-opacity:1;stroke:#000000;stroke-width:11.3386;stroke-linejoin:round;stroke-dasharray:none;stroke-opacity:1"
         d="m 786.70003,293.17218 328.37847,14.72262 39.687,30.08536 c 3.3323,2.5478 5.3045,5.60186 5.121,11.52205 l -8.3215,58.89048 -49.2888,-24.32433 -323.25754,-19.20342 c -3.86999,-0.94918 -9.12304,2.42049 -10.88194,-5.12091 l 7.68137,-58.89048 c 1.37001,-7.39754 6.33777,-7.0856 10.88194,-7.68137 z"
         id="path2" /><path
         style="fill:none;fill-opacity:1;stroke:#000000;stroke-width:10;stroke-linejoin:round;stroke-dasharray:none;stroke-opacity:1"
         d="m 1151.565,408.39269 -23.6138,330.29768 c 0.2941,5.92167 -1.483,8.39138 -5.4315,7.24207 l -354.86108,-37.11557 -55.22072,-26.25248 349.4295,38.02083 60.6523,25.1209"
         id="path3" /><path
         style="fill:none;fill-opacity:1;stroke:#00000f;stroke-width:10;stroke-linejoin:round;stroke-dasharray:none;stroke-opacity:1"
         d="m 1061.8674,720.58522 c 18.1125,-127.56018 26.8622,-225.64379 40.4088,-336.51686 -20.1906,85.68957 -25.2621,172.29546 -98.5775,254.76535 -13.54209,23.22758 -47.28213,30.10444 -96.65725,24.32433 -89.38837,-7.29725 -173.4308,-30.63235 -256.04558,-58.25037 39.4142,-22.87538 75.04956,-57.1698 99.85778,-124.1821 11.38127,-34.63435 20.17533,-74.44311 28.16501,-115.86063"
         id="path4" /><path
         style="fill:none;fill-opacity:1;stroke:#000000;stroke-width:10;stroke-linejoin:round;stroke-dasharray:none;stroke-opacity:1"
         d="m 907.04145,663.15804 c 17.82457,-4.85452 36.23234,-5.87662 51.20911,-29.44524 15.63661,10.23351 30.6611,9.7549 45.44814,5.12091"
         id="path5" /><path
         style="fill:none;fill-opacity:1;stroke:#000000;stroke-width:10;stroke-linejoin:round;stroke-dasharray:none;stroke-opacity:1"
         d="m 712.4379,682.56439 15.38505,-53.70848"
         id="path6" /><path
         style="display:inline;fill:none;fill-opacity:1;stroke:#000000;stroke-width:6;stroke-linejoin:round;stroke-dasharray:none;stroke-opacity:1"
         d="m 1118.9687,392.30623 c -11.0455,113.83252 -23.599,307.59287 -33.0748,338.23026"
         id="path7" /><path
         style="display:inline;fill:none;fill-opacity:1;stroke:#000000;stroke-width:6;stroke-linejoin:round;stroke-dasharray:none;stroke-opacity:1"
         d="m 1132.3121,398.89125 c -8.498,113.44598 -13.5658,242.32811 -25.5006,340.30885"
         id="path8" /><path
         style="fill:#d4d7d9;fill-opacity:1;stroke:#000000;stroke-width:6;stroke-linejoin:round;stroke-dasharray:none;stroke-opacity:1"
         d="m 904.99263,292.67448 c 0.50245,-14.11628 0.72085,-22.71522 -13.81392,-43.31027 -12.15727,-13.04884 -26.74451,-17.3405 -46.22831,-9.74183 -18.48139,10.44376 -25.03763,24.89144 -26.24467,43.30798 0.43338,11.33618 0.5761,33.92237 15.8325,50.50855 13.78469,13.34911 26.38606,2.61722 23.06331,-9.2116 -2.06113,-7.83281 -21.4942,-24.25121 -8.09069,-53.65968 4.1746,-7.23532 14.72321,-11.42472 21.18422,-7.40114 9.79943,3.46871 14.80543,17.70111 13.72272,28.72766"
         id="path10" /><path
         style="fill:#d4d7d9;fill-opacity:1;stroke:#000000;stroke-width:6;stroke-linejoin:round;stroke-dasharray:none;stroke-opacity:1"
         d="m 1064.4298,299.8577 c 0.5025,-14.11628 0.7209,-22.71522 -13.8139,-43.31027 -12.1573,-13.04884 -26.7445,-17.3405 -46.2283,-9.74183 -18.48141,10.44376 -25.03765,24.89144 -26.24469,43.30798 0.43338,11.33618 0.5761,33.92237 15.8325,50.50855 13.78469,13.34911 26.38609,2.61722 23.06329,-9.2116 -2.0611,-7.83281 -21.49418,-24.25121 -8.0907,-53.65968 4.1746,-7.23532 14.7233,-11.42472 21.1843,-7.40114 9.7994,3.46871 14.8054,17.70111 13.7227,28.72766"
         id="path10-2" /><path
         style="fill:#cccccc;fill-opacity:1;stroke:#ffffff;stroke-width:6;stroke-linecap:round;stroke-linejoin:round;stroke-dasharray:none;stroke-opacity:1"
         d="m 1115.8145,328.09755 -4.9497,41.7193"
         id="path31" /><path
         style="display:inline;fill:#000000;fill-opacity:1;stroke:#000000;stroke-width:11.3386;stroke-linecap:round;stroke-linejoin:round;stroke-dasharray:none;stroke-opacity:1"
         d="m 879.83661,474.00437 -12.48222,-22.72404 44.16786,-29.7653 39.04695,4.4808 c -2.53104,50.04647 -11.9438,99.28379 -43.32718,152.50643 l 22.84353,4.70057 -11.52205,20.74467 -81.87413,-15.60171 c 4.41891,-8.08571 10.34894,-10.66586 13.06188,-19.60456 l 21.44382,2.2404 c 20.84369,-38.5981 44.57096,-74.92513 34.24609,-111.05977 z"
         id="path9" /></g></g><g
     id="layer4"
     style="display:none"><path
       style="fill:#ffffff;fill-opacity:1;stroke:#000000;stroke-width:11.3386;stroke-linejoin:round;stroke-dasharray:none;stroke-opacity:1"
       d="m 1015.6909,194.95436 c 21.5376,-4.37643 67.6117,-16.58216 109.316,-95.959411 45.0603,17.383361 90.8294,32.403771 137.8858,43.133511 -18.1228,50.78782 -53.4647,84.87983 -70.0036,96.87363 -16.2054,11.75645 -43.5035,11.68072 -59.1898,6.98528 l -27.7843,-10.52081 c -29.1842,-11.74202 -59.4336,-23.83294 -90.2241,-40.5122 z"
       id="path12" /><path
       style="fill:#ffffff;fill-opacity:1;stroke:#000000;stroke-width:11.3386;stroke-linejoin:round;stroke-dasharray:none;stroke-opacity:1"
       d="m 1186.8204,242.63529 c -16.9011,1.56812 -31.8693,-0.89091 -40.8204,-15.88529 -14.7932,6.05926 -26.6871,7.49543 -60.5787,0.42827"
       id="path13" /><path
       style="fill:#ffffff;fill-opacity:1;stroke:#000000;stroke-width:11.3386;stroke-linejoin:round;stroke-dasharray:none;stroke-opacity:1"
       d="m 1304.5,219.5 c 58.4074,-13.47289 103.5415,-43.75861 142,-82.5 43.814,46.68888 76.8953,68.69251 107.5,85 -34.6183,44.02611 -90.566,71.29338 -162.5,86 z"
       id="path14" /><path
       style="fill:#ffffff;fill-opacity:1;stroke:#000000;stroke-width:11.3386;stroke-linejoin:round;stroke-dasharray:none;stroke-opacity:1"
       d="m 1228.5,418.5 c 52.9263,-17.80234 89.1348,-41.1773 122.5,-65.5 40.6957,32.39493 85.8162,47.16524 130.2678,55.14645 -7.4787,11.15602 -31.7851,28.60453 -73.2678,58.35355 -9.2374,6.489 -24.0749,12.34342 -37.6679,16.39277 -18.916,3.37927 -33.9701,0.35469 -48.8321,-4.89277 -29.6553,-15.26121 -58.7989,-28.78309 -93,-59.5 z"
       id="path15" /><path
       style="fill:#ffffff;fill-opacity:1;stroke:#000000;stroke-width:11.3386;stroke-linejoin:round;stroke-dasharray:none;stroke-opacity:1"
       d="m 1430.7934,450.10602 c -17.6495,7.55016 -36.0672,12.28365 -56.5314,9.51339 -8.1973,14.95209 -19.2225,21.98599 -32.1295,23.75109"
       id="path16" /><path
       style="display:inline;fill:#ffffff;fill-opacity:1;stroke:#000000;stroke-width:11.3386;stroke-linejoin:round;stroke-dasharray:none;stroke-opacity:1"
       d="m 1346.6849,587.25218 c 28.9343,-12.49379 58.4209,-24.5962 100.0556,-79.19596 67.5756,29.39898 103.9098,28.38251 144.6033,33.58757 -42.8787,72.16186 -71.3215,88.14402 -93.3381,102.88404 -66.7634,-5.02022 -111.6531,-28.89708 -151.3208,-57.27565 z"
       id="path17" /><path
       style="display:inline;fill:#ffffff;fill-opacity:1;stroke:#000000;stroke-width:11.3386;stroke-linejoin:round;stroke-dasharray:none;stroke-opacity:1"
       d="m 1334.5,643 c 65.7875,62.71857 99.377,65.24105 135.5,72.5 -25.7884,36.17684 -59.4931,62.17559 -94.5,86.5 -53.0253,-13.53925 -99.1402,-45.29701 -137.5,-97.5 32.7065,-10.78219 65.1171,-26.89186 96.5,-61.5 z"
       id="path18" /><path
       style="display:inline;fill:#ffffff;fill-opacity:1;stroke:#000000;stroke-width:11.3386;stroke-linejoin:round;stroke-dasharray:none;stroke-opacity:1"
       d="m 1162,794.5 c 61.1066,78.26627 92.4369,79.74088 129.5,96 -54.7095,41.06054 -89.0891,53.4199 -121.5,63 -79.6345,-42.11035 -105.0273,-98.15541 -120,-123.5 30.2095,-5.45936 57.3943,-8.21249 112,-35.5 z"
       id="path19" /><path
       style="display:inline;fill:#ffffff;fill-opacity:1;stroke:#000000;stroke-width:11.3386;stroke-linejoin:round;stroke-dasharray:none;stroke-opacity:1"
       d="m 701,743.5 c 57.27943,39.65689 88.87219,39.35674 123,43 -24.22686,44.87797 -89.82041,92.96689 -137,116 -60.76014,-10.72941 -101.20005,-38.87614 -144,-65 52.0508,-7.31447 104.61744,-34.74676 158,-94 z"
       id="path20" /><path
       style="fill:#ffffff;fill-opacity:1;stroke:#000000;stroke-width:11.3386;stroke-linejoin:round;stroke-dasharray:none;stroke-opacity:1"
       d="m 333.5,638 c 49.25919,-0.015 103.12133,-7.56218 167,-31.5 26.03956,48.31421 65.40853,67.23429 89.5,79.5 -59.82392,40.92166 -114.47063,52.00358 -157.5,57 -40.55657,-19.04724 -70.23876,-61.0515 -99,-105 z"
       id="path21" /><path
       style="display:inline;fill:#ffffff;fill-opacity:1;stroke:#000000;stroke-width:11.3386;stroke-linejoin:round;stroke-dasharray:none;stroke-opacity:1"
       d="m 364.5,460 c 58.51429,3.68479 114.64001,-1.2293 166.5,-21.5 23.48753,45.43308 51.13859,57.55792 78.5,72 C 564.89204,537.25452 518.25106,557.50338 467,563 407.61615,535.59948 376.41669,483.2345 364.5,460 Z"
       id="path22" /><path
       style="display:inline;fill:#ffffff;fill-opacity:1;stroke:#000000;stroke-width:11.3386;stroke-linejoin:round;stroke-dasharray:none;stroke-opacity:1"
       d="m 279.5,345 c 41.06252,-16.15683 74.57271,-43.38755 93,-91.5 48.69261,27.7665 97.97447,50.2298 148,66 -30.24413,60.60326 -50.79801,75.52397 -72,93.5 -42.23979,-10.66106 -91.09915,-26.961 -169,-68 z"
       id="path23" /><path
       style="display:inline;fill:#ffffff;fill-opacity:1;stroke:#000000;stroke-width:11.3386;stroke-linejoin:round;stroke-dasharray:none;stroke-opacity:1"
       d="m 484.5,145 c 51.852,-3.09918 101.78665,-16.55207 147,-55.5 27.92313,54.64004 56.74749,93.95935 86,126 -36.59251,20.72226 -59.47378,47.32076 -77.5,76 C 556.33753,239.85821 510.48173,178.83172 484.5,145 Z"
       id="path24" /></g></svg>
