<?xml version="1.0" encoding="UTF-8" standalone="no"?>
<!-- Created with Inkscape (http://www.inkscape.org/) -->

<svg
   width="1920"
   height="1080"
   viewBox="0 0 1920 1080"
   version="1.1"
   id="svg1"
   xml:space="preserve"
   inkscape:export-filename="polaroids-in-hand-plain.svg"
   inkscape:export-xdpi="96"
   inkscape:export-ydpi="96"
   inkscape:version="1.4.2 (ebf0e940d0, 2025-05-08)"
   sodipodi:docname="polaroids-in-hand.svg"
   xmlns:inkscape="http://www.inkscape.org/namespaces/inkscape"
   xmlns:sodipodi="http://sodipodi.sourceforge.net/DTD/sodipodi-0.dtd"
   xmlns:xlink="http://www.w3.org/1999/xlink"
   xmlns="http://www.w3.org/2000/svg"
   xmlns:svg="http://www.w3.org/2000/svg"
   xmlns:rdf="http://www.w3.org/1999/02/22-rdf-syntax-ns#"
   xmlns:cc="http://creativecommons.org/ns#"
   xmlns:dc="http://purl.org/dc/elements/1.1/"><sodipodi:namedview
     id="namedview1"
     pagecolor="#505050"
     bordercolor="#eeeeee"
     borderopacity="1"
     inkscape:showpageshadow="0"
     inkscape:pageopacity="0"
     inkscape:pagecheckerboard="0"
     inkscape:deskcolor="#505050"
     inkscape:document-units="mm"
     inkscape:zoom="0.39055548"
     inkscape:cx="647.79529"
     inkscape:cy="901.2804"
     inkscape:window-width="1600"
     inkscape:window-height="831"
     inkscape:window-x="0"
     inkscape:window-y="0"
     inkscape:window-maximized="1"
     inkscape:current-layer="layer4" /><defs
     id="defs1"><filter
       style="color-interpolation-filters:sRGB;"
       inkscape:label="Drop Shadow"
       id="filter44"
       x="-0.032215709"
       y="-0.01795394"
       width="1.041405"
       height="1.0264073"><feFlood
         result="flood"
         in="SourceGraphic"
         flood-opacity="0.403922"
         flood-color="rgb(0,0,0)"
         id="feFlood43" /><feGaussianBlur
         result="blur"
         in="SourceGraphic"
         stdDeviation="0.000000"
         id="feGaussianBlur43" /><feOffset
         result="offset"
         in="blur"
         dx="-12.528613"
         dy="-5.619277"
         id="feOffset43" /><feComposite
         result="comp1"
         operator="in"
         in="flood"
         in2="offset"
         id="feComposite43" /><feComposite
         result="comp2"
         operator="over"
         in="SourceGraphic"
         in2="comp1"
         id="feComposite44" /></filter></defs><g
     inkscape:groupmode="layer"
     id="layer7"
     inkscape:label="Hintergrund"
     style="display:none"><rect
       style="fill:#777777;fill-opacity:1;fill-rule:nonzero;stroke:none;stroke-width:10.0006;stroke-linecap:round;stroke-linejoin:round;stroke-dasharray:none;stroke-opacity:1"
       id="rect31"
       width="1920"
       height="1080"
       x="0"
       y="0" /></g><g
     id="g31"
     transform="matrix(1.3416374,-0.29276888,0.29276888,1.3416374,-808.59122,284.42251)"><g
       inkscape:groupmode="layer"
       id="layer5"
       inkscape:label="Hand"><path
         style="fill:#fecb9e;fill-opacity:1;stroke:none;stroke-width:6;stroke-linecap:round;stroke-linejoin:round;stroke-dasharray:none;stroke-opacity:1"
         d="m 1385.9497,1080.8778 -35.3051,-50.6944 c -37.8459,-14.78 -69.0044,-41.27457 -95.9573,-75.13643 l -60.6523,-120.39929 -170.1884,-128.5466 -24.442,-38.92609 52.3026,-20.65993 c 10.4694,-8.85639 19.1517,-18.57691 49.2887,-17.92319 l 148.5065,20.48365 161.3419,70.1518 29.8735,6.3368 -3.1684,-19.01041 41.8615,-101.75052 c 39.6023,51.83877 63.7663,112.66166 59.5273,190.01315 1.8088,64.68803 37.5732,125.85357 95.9574,184.67259 33.2492,36.60267 62.4226,75.99097 113.3502,100.51107 z"
         id="path29"
         inkscape:label="pathHaut"
         sodipodi:nodetypes="ccccccccccccccccc"
         inkscape:export-filename="path29.svg"
         inkscape:export-xdpi="96"
         inkscape:export-ydpi="96" /><path
         style="fill:none;fill-opacity:1;stroke:#000000;stroke-width:10;stroke-linecap:round;stroke-linejoin:round;stroke-dasharray:none;stroke-opacity:1"
         d="m 1748.2458,1080 c -28.751,-5.3876 -71.3264,-53.8079 -113.3502,-100.51107 -72.2079,-56.33982 -92.5107,-149.34277 -95.9574,-184.67259 -8.0993,-151.51399 -35.8364,-147.64035 -59.5273,-190.01315"
         id="path20"
         sodipodi:nodetypes="cccc" /><path
         style="fill:none;fill-opacity:1;stroke:#000000;stroke-width:10;stroke-linecap:round;stroke-linejoin:round;stroke-dasharray:none;stroke-opacity:1"
         d="m 1385.9497,1080.8778 c -4.5798,-22.1677 -15.924,-32.1595 -35.3051,-50.6944 -28.3147,-14.9582 -71.7374,-36.08022 -95.9573,-75.13643 -25.7348,-43.36296 -41.0862,-75.05535 -60.6523,-120.39929 -43.7491,-32.91228 -95.8626,-72.22757 -170.1884,-128.5466 -14.2153,-15.40256 -18.313,-26.75807 -24.442,-38.92609"
         id="path21"
         sodipodi:nodetypes="cccccc" /><path
         style="fill:none;fill-opacity:1;stroke:#000000;stroke-width:10;stroke-linecap:round;stroke-linejoin:round;stroke-dasharray:none;stroke-opacity:1"
         d="m 1253.782,741.40613 c -40.1881,41.77985 -49.4425,67.23361 -59.747,93.24155"
         id="path22"
         sodipodi:nodetypes="cc" /><path
         style="fill:none;fill-opacity:1;stroke:#000000;stroke-width:10;stroke-linecap:round;stroke-linejoin:round;stroke-dasharray:none;stroke-opacity:1"
         d="M 1227.9928,771.1819 C 1182.9829,736.09778 1125.7196,695.24739 1051.7072,646.51506"
         id="path23"
         sodipodi:nodetypes="cc" /><path
         style="fill:none;fill-opacity:1;stroke:#000000;stroke-width:10;stroke-linecap:round;stroke-linejoin:round;stroke-dasharray:none;stroke-opacity:1"
         d="m 1437.5494,706.55371 3.1684,19.01041 -29.8735,-6.3368"
         id="path24" /><path
         style="fill:none;fill-opacity:1;stroke:#000000;stroke-width:6;stroke-linecap:round;stroke-linejoin:round;stroke-dasharray:none;stroke-opacity:1"
         d="m 1279.9796,817.81333 c -6.1171,18.58996 -23.1162,31.4189 -28.9133,50.32889"
         id="path25"
         sodipodi:nodetypes="cc" /><path
         style="fill:none;fill-opacity:1;stroke:#000000;stroke-width:10;stroke-linecap:round;stroke-linejoin:round;stroke-dasharray:none;stroke-opacity:1"
         d="M 1263.8172,848.43632 Z"
         id="path26" /></g><g
       inkscape:groupmode="layer"
       id="layer4"
       inkscape:label="Fotos"
       style="display:inline"><use
         x="0"
         y="0"
         xlink:href="#g18"
         id="use20"
         transform="rotate(-49.35211,1131.9854,870.39387)"
         style="display:inline" /><g
         id="g33"
         transform="matrix(1.5055381,-0.81123056,0.81123056,1.5055381,-810.01375,1154.5439)"
         inkscape:label="gStella"
         style="display:inline"><rect
           style="display:inline;fill:#ffaa55;fill-opacity:1;stroke:#000000;stroke-width:4.25814;stroke-linecap:round;stroke-linejoin:round;stroke-dasharray:none;stroke-opacity:1"
           id="rect28"
           width="198.87927"
           height="203.04291"
           x="1001.1207"
           y="0.45263001" /><path
           style="display:inline;fill:#ffffff;fill-opacity:1;stroke:none;stroke-width:7;stroke-linecap:round;stroke-linejoin:round;stroke-dasharray:none;stroke-opacity:1"
           d="m 1100.6759,155.54769 c -9.4688,-2.23251 -18.7526,-2.15725 -28.4851,-7.68137 -7.1999,-5.11432 -7.9915,-8.66279 -11.2019,-12.80228 -5.4084,-6.50387 -6.0992,-14.95225 -4.1608,-24.48436 1.6849,-8.21085 5.9362,-14.990048 13.1209,-20.132797 4.7069,-5.967851 11.0421,-10.39402 20.6987,-11.675416 11.5048,-1.205418 22.8837,-1.576766 33.9548,0.09374 10.1219,2.808661 17.5985,7.742375 24.8821,12.831115 l 0.8001,6.721196 c 0.8739,9.327822 0.3845,17.218462 -1.7603,23.364162 -2.0156,9.66714 -6.0457,16.10511 -10.5619,21.76387 -5.1514,3.96754 -11.4557,6.96588 -19.1204,8.82066 z"
           id="path33" /><path
           style="fill:#ffffff;fill-opacity:1;stroke:#000000;stroke-width:6.59111;stroke-linecap:round;stroke-linejoin:round;stroke-dasharray:none;stroke-opacity:1"
           d="m 1054.0633,197.67169 c 2.1761,-21.21442 8.1167,-27.05997 15.7491,-33.85394 7.968,-5.80454 17.2478,-8.76053 30.8554,-8.47688 12.3304,-0.1128 26.5687,0.74028 35.7509,7.92978 5.9373,6.32713 9.0116,11.25562 10.8574,17.18314 2.5401,7.53162 2.7571,12.86957 3.8532,17.2179"
           id="path28-9" /><path
           style="fill:#000000;fill-opacity:1;stroke:#000000;stroke-width:1;stroke-linecap:round;stroke-linejoin:round;stroke-dasharray:none;stroke-opacity:1"
           d="m 1100.6759,155.54769 -24.2704,5.16397 c -10.8445,0.29944 -26.0134,1.87735 -31.3026,20.39745 1.8676,-6.61075 5.0284,-33.83606 4.0438,-39.96399 l -3.2005,-29.76529 c -1.1078,-8.30148 -1.7695,-17.083233 0.7201,-27.204847 1.9349,-10.089542 6.1573,-19.981634 15.2827,-28.805127 6.786,-5.811996 11.3814,-12.191606 30.4054,-16.242892 15.2793,-2.71795 28.0933,0.1147 40.3272,5.040898 8.8671,6.536713 18.1823,12.454606 22.7241,24.964443 3.6619,8.820352 6.4541,18.510373 6.7212,30.725469 0.4821,10.348506 -0.4831,20.697016 -2.5605,31.045526 -1.9297,14.68903 -1.8694,38.34056 -1.5547,49.80574 -3.3763,-13.59814 -12.3252,-14.0939 -19.249,-20.68055 l -38.0868,-4.4808 18.1662,-3.18148 c 6.7868,-2.24693 14.1422,-4.16225 19.1204,-8.82066 5.8143,-7.54819 9.5828,-14.8046 10.5619,-21.76387 1.7537,-6.38774 2.9932,-13.3925 1.7603,-23.364162 l -0.8001,-6.721196 c -6.51,-2.714006 -14.2842,-11.285089 -24.8821,-12.831115 -19.5912,-2.00099 -26.7241,-1.035716 -33.9548,-0.09374 -7.8789,0.140296 -15.6607,5.582692 -20.6987,11.675416 -6.844,4.746627 -10.7156,10.653557 -13.1209,20.132797 -2.1427,9.95421 -0.8872,18.56718 4.1608,24.48436 3.8645,4.33552 5.2351,9.51791 11.2019,12.80228 7.6379,4.88288 19.5128,5.69056 28.4851,7.68137 z"
           id="path29-3" /><path
           style="fill:none;fill-opacity:1;stroke:#000000;stroke-width:7;stroke-linecap:round;stroke-linejoin:round;stroke-dasharray:none;stroke-opacity:1"
           d="m 1085.9533,131.22336 c 10.9755,8.90367 22.4173,8.48272 34.2461,0.32005"
           id="path30" /><ellipse
           style="fill:#000000;fill-opacity:1;stroke:none;stroke-width:0.779412;stroke-linecap:round;stroke-linejoin:round;stroke-dasharray:none;stroke-opacity:1"
           id="path31-1"
           cx="1083.0986"
           cy="100.89796"
           rx="3.8665707"
           ry="4.2407551" /><ellipse
           style="fill:#000000;fill-opacity:1;stroke:none;stroke-width:1;stroke-linecap:round;stroke-linejoin:round;stroke-dasharray:none;stroke-opacity:1"
           id="path32"
           cx="1124.5201"
           cy="101.45806"
           rx="4.6408262"
           ry="4.1607404" /></g><use
         x="0"
         y="0"
         xlink:href="#g18"
         id="use19"
         transform="rotate(-35.325967,1117.108,853.44546)"
         style="display:inline" /><g
         id="g26"
         transform="matrix(1.524022,-0.3877315,0.3877315,1.524022,-350.89418,544.41862)"
         inkscape:label="gThomas"
         style="display:inline"><rect
           style="display:inline;fill:#99ff99;fill-opacity:1;stroke:#000000;stroke-width:4.26417;stroke-linecap:butt;stroke-linejoin:round;stroke-dasharray:none;stroke-opacity:1"
           id="rect20"
           width="217.16743"
           height="203.68301"
           x="783.95325"
           y="0.45263001" /><path
           style="fill:#ffffff;fill-opacity:1;stroke:none;stroke-width:0;stroke-linecap:round;stroke-linejoin:round;stroke-dasharray:none;stroke-opacity:1"
           d="m 896.54471,155.93066 -33.8037,-5.72687 -10.3745,-10.15398 -9.57149,-20.55578 4.15367,-27.660565 22.55144,-21.223356 12.67361,10.863094 15.38938,-11.542037 12.4473,7.921006 7.24206,-7.921006 18.7841,16.068326 6.56312,11.315723 1.13157,28.515625 -13.12623,17.87884 c -8.17426,9.23984 -21.18783,10.61579 -34.06033,12.22098 z"
           id="path26-2" /><path
           style="fill:#ffffff;fill-opacity:1;stroke:#000000;stroke-width:6.753;stroke-linecap:round;stroke-linejoin:round;stroke-dasharray:none;stroke-opacity:1"
           d="m 841.34232,200.57018 c 2.43535,-10.49906 0.90814,-17.49493 13.59048,-32.38347 1.40017,-1.64374 3.27049,-3.75955 6.91349,-5.73431 8.89572,-5.18873 39.45375,-7.73478 62.01642,-4.77921 16.65161,5.86427 18.63944,13.67159 24.03066,21.02793 2.58676,5.00181 3.6188,12.11059 3.62727,21.86906"
           id="path21-2" /><path
           style="fill:#000000;fill-opacity:1;stroke:#000000;stroke-width:7;stroke-linecap:butt;stroke-linejoin:round;stroke-dasharray:none;stroke-opacity:1"
           d="m 894.89005,156.03072 c -11.02873,-0.65507 -22.31432,-0.39584 -32.14904,-5.82693 -9.62445,-3.7615 -17.77787,-10.05286 -22.76287,-16.54921 -6.35364,-5.30096 -10.59046,-26.98812 -11.03059,-42.118287 0.65839,-14.715394 4.44538,-25.91111 9.92176,-35.206267 7.27344,-8.557876 14.62267,-17.06522 27.20485,-22.08393 10.37498,-2.387189 20.94476,-4.676982 38.40683,-3.520627 8.4976,1.601607 17.22503,3.560716 31.04553,13.442393 8.9189,8.814376 15.97885,18.186434 18.88336,28.805127 4.48731,16.653098 2.58758,23.370797 1.92034,32.005701 -1.1627,13.48034 -4.4614,19.48466 -8.00142,24.64438 -4.24448,7.17891 -8.91702,11.78948 -13.76245,15.36274 -19.09627,10.49883 -25.69973,10.28217 -38.02164,10.94485 17.30249,-0.50306 27.61828,-4.2667 35.30587,-11.17116 4.85932,-4.50789 8.21889,-10.82823 11.88069,-18.92866 2.91138,-10.97048 0.10199,-20.50581 -1.13157,-28.515625 -2.1443,-7.545924 -3.84227,-7.805694 -6.56312,-11.315723 -7.13687,-4.042855 -12.78016,-10.326079 -18.7841,-16.068326 -2.08728,3.130455 -3.9966,6.527832 -7.24206,7.921006 -5.26011,0.533977 -8.57086,-4.501637 -12.4473,-7.921006 -3.70821,6.137679 -7.892,11.509129 -15.38938,11.542037 -6.96542,-0.735895 -9.62309,-6.006256 -12.67361,-10.863094 -5.18265,8.528791 -14.94174,15.441666 -22.55144,21.223356 -5.92603,5.398893 -6.0866,18.666855 -4.15367,27.660565 1.53918,4.67018 4.22853,15.60128 9.57149,20.55578 8.88677,8.46338 22.38571,16.1309 42.52354,15.98091 z"
           id="path22-8" /><path
           style="fill:none;fill-opacity:1;stroke:#000000;stroke-width:7;stroke-linecap:round;stroke-linejoin:round;stroke-dasharray:none;stroke-opacity:1"
           d="m 881.72111,129.22555 c 10.09116,1.3193 19.97426,0.73248 26.7051,0.67895"
           id="path23-9" /><circle
           style="fill:#000000;fill-opacity:1;stroke:#000000;stroke-width:7;stroke-linecap:butt;stroke-linejoin:round;stroke-dasharray:none;stroke-opacity:1"
           id="path24-7"
           cx="875.67584"
           cy="99.537704"
           r="5.6116452" /><ellipse
           style="fill:#000000;fill-opacity:1;stroke:#000000;stroke-width:7;stroke-linecap:butt;stroke-linejoin:round;stroke-dasharray:none;stroke-opacity:1"
           id="path25-3"
           cx="915.36292"
           cy="99.53772"
           rx="5.7610254"
           ry="5.4409685" /></g><use
         x="0"
         y="0"
         xlink:href="#g18"
         id="use18"
         style="display:inline"
         transform="rotate(-11.892196,1111.1109,1047.3384)" /><g
         id="g20"
         transform="matrix(1.5430731,0.25849571,-0.25849571,1.5430731,1071.0304,186.85946)"
         inkscape:label="gDiane"
         style="display:inline"><rect
           style="display:inline;fill:#ff9999;fill-opacity:1;stroke:#000000;stroke-width:4.65443338;stroke-linecap:round;stroke-linejoin:round;stroke-dasharray:none;stroke-opacity:1"
           id="rect14"
           width="197.15509"
           height="204.13564"
           x="0"
           y="0" /><path
           style="fill:#ffffff;fill-opacity:1;stroke:none;stroke-width:7;stroke-linecap:round;stroke-linejoin:round;stroke-dasharray:none;stroke-opacity:1"
           d="m 57.042258,178.55809 -23.436276,-5.24724 8.481509,-25.2845 -0.960171,-25.92462 0.740854,-38.591697 C 44.767334,63.239102 53.444387,47.233006 73.778512,39.831344 L 119.0414,38.473457 c 13.52703,7.039263 27.96733,13.28487 32.58928,28.062992 l 2.82084,15.284199 3.49659,33.559892 -1.76031,39.20698 5.76103,20.16358 -20.41388,2.76747 -11.80763,-16.34445 -31.151411,-3.76243 -28.903375,3.18359 z"
           id="path20-0" /><path
           style="fill:#ffffff;fill-opacity:1;stroke:#000000;stroke-width:6.66786;stroke-linecap:round;stroke-linejoin:round;stroke-dasharray:none;stroke-opacity:1"
           d="m 50.082469,199.32241 c 0.27919,-11.34426 4.006166,-23.55161 19.590065,-38.72713 5.212754,-4.68377 14.277436,-6.21176 28.903375,-3.18359 25.770281,-4.29236 23.749981,-0.85888 31.151411,3.76243 13.95419,11.35868 17.1076,24.49042 18.30547,38.14829"
           id="path14" /><path
           style="fill:none;fill-opacity:1;stroke:#000000;stroke-width:7;stroke-linecap:round;stroke-linejoin:round;stroke-dasharray:none;stroke-opacity:1"
           d="M 98.575909,157.41169 C 78.184499,156.52516 65.948765,149.673 57.031242,139.86233 41.902184,125.49189 43.248652,102.81897 41.868174,83.510033 43.329232,64.164894 48.076023,54.63448 73.778512,39.831344 c 13.21875,-3.522931 26.233428,-7.381128 45.262888,-1.357887 12.31351,5.586051 22.35244,8.3755 32.58928,28.062992 4.27786,13.834985 3.69393,27.800592 0,45.262891 -2.41586,15.90909 -8.83471,27.34624 -17.19989,33.94717 -10.93217,9.01362 -24.63954,10.29998 -35.854881,11.66518 z"
           id="path15" /><path
           style="fill:none;fill-opacity:1;stroke:#000000;stroke-width:7;stroke-linecap:butt;stroke-linejoin:round;stroke-dasharray:none;stroke-opacity:1"
           d="m 55.640271,178.3904 c -8.192021,2.05021 -14.435512,-1.19732 -22.034289,-5.07955 6.957648,-8.77237 8.733233,-17.11291 8.481509,-25.2845 -0.861254,-11.34753 -1.303325,-20.59913 -0.960171,-25.92462 L 41.868174,83.510033 C 53.136728,82.440834 62.728939,82.365297 80.014242,75.853502 90.207353,71.040053 97.391347,64.507108 103.3784,57.290197 c 5.44842,7.666465 12.28791,12.550789 19.84353,16.002849 10.4552,3.87436 20.77439,7.60169 31.22959,8.527602 1.14946,9.263803 2.59804,12.970471 3.49659,33.559892 0.33067,13.32664 -2.35479,25.84267 -1.76031,39.20698 0.60402,7.01371 2.44175,13.75326 5.76103,20.16358 -4.6894,3.74279 -12.1274,3.82079 -20.41388,2.76747"
           id="path16" /><path
           style="fill:none;fill-opacity:1;stroke:#000000;stroke-width:7;stroke-linecap:round;stroke-linejoin:round;stroke-dasharray:none;stroke-opacity:1"
           d="m 78.413957,131.22336 c 14.125222,11.48035 27.693673,9.59814 40.967293,0.64011"
           id="path17-2" /><ellipse
           style="fill:none;fill-opacity:1;stroke:#000000;stroke-width:7;stroke-linecap:round;stroke-linejoin:round;stroke-dasharray:none;stroke-opacity:1"
           id="path18-3"
           cx="75.037941"
           cy="100.2526"
           rx="3.3947167"
           ry="2.9420879" /><ellipse
           style="fill:none;fill-opacity:1;stroke:#000000;stroke-width:7;stroke-linecap:round;stroke-linejoin:round;stroke-dasharray:none;stroke-opacity:1"
           id="path19"
           cx="120.74149"
           cy="100.5779"
           rx="3.600641"
           ry="3.2805839" /></g><g
         id="g18"
         inkscape:label="gPolaroid"
         style="display:inline;filter:url(#filter44)"
         transform="translate(-3.0659912,-1.9547955)"
         sodipodi:insensitive="true"><path
           style="fill:#ffffff;fill-opacity:1;stroke:#000000;stroke-width:10;stroke-linecap:round;stroke-linejoin:round;stroke-dasharray:none;stroke-opacity:1"
           d="M 1058.7484,583.7839 1433.8552,725.88919 1602.8453,276.52921 1230.299,134.42392 Z"
           id="path17"
           inkscape:label="pathAussen" /><path
           style="display:none;fill:#000000;fill-opacity:1;stroke:#000000;stroke-width:10;stroke-linecap:round;stroke-linejoin:round;stroke-dasharray:none;stroke-opacity:1"
           d="M 1254.6233,190.75395 1545.235,299.57332 1432.575,590.18504 1143.2435,477.52499 Z"
           id="path18"
           inkscape:label="pathInnen" /></g><g
         id="g12"
         transform="matrix(1.6009359,0.60149778,-0.59897985,1.5398859,295.14436,-164.43573)"
         inkscape:label="gStephan"><rect
           style="display:inline;fill:#9999ff;fill-opacity:1;stroke:#000000;stroke-width:4.36906;stroke-linecap:round;stroke-linejoin:round;stroke-dasharray:none;stroke-opacity:1"
           id="rect4"
           width="192.81992"
           height="203.68301"
           x="591.13336"
           y="0.45263001" /><path
           style="display:inline;fill:#ffffff;fill-opacity:1;stroke:none;stroke-width:6;stroke-linecap:round;stroke-linejoin:round;stroke-dasharray:none;stroke-opacity:1"
           d="m 686.18542,165.20955 c -19.56211,-1.68361 -36.89666,-7.11436 -46.62078,-25.34722 l -8.08089,-29.37651 4.00724,-33.765221 c 6.55403,-15.095669 17.50564,-26.709237 35.98399,-32.362966 15.17967,-3.586196 29.2642,-3.947745 40.96292,2.715773 13.5012,7.726991 23.40485,18.952824 28.96825,34.399797 l 3.44981,27.987457 c -1.21296,15.95702 -4.38691,29.36022 -11.1445,38.09636 -12.15305,10.19711 -26.07073,18.33112 -47.52604,17.65253 z"
           id="path11" /><path
           style="display:inline;fill:#ffffff;fill-opacity:1;stroke:#000000;stroke-width:7;stroke-linecap:round;stroke-linejoin:round;stroke-dasharray:none;stroke-opacity:1"
           d="m 640.34745,201.47222 c 4.64026,-25.77194 15.96816,-40.5259 45.83797,-36.26267 39.7853,-4.19799 51.70873,10.86506 53.03768,36.71109"
           id="path4"
           sodipodi:nodetypes="ccc" /><path
           style="fill:none;fill-opacity:1;stroke:#000000;stroke-width:6;stroke-linecap:round;stroke-linejoin:round;stroke-dasharray:none;stroke-opacity:1"
           d="m 686.18542,165.20955 c -18.08841,-1.20636 -34.90261,-5.78018 -46.62078,-25.34722 -8.00079,-14.49024 -12.05215,-41.213848 -4.07365,-63.141731 5.5382,-10.555792 13.76118,-26.26845 35.98399,-32.362966 14.95272,-3.671848 26.0021,-4.122431 40.96292,2.715773 11.22195,7.747667 22.45739,15.463291 28.96825,34.399797 2.38047,19.700707 9.39997,37.218347 -7.69469,66.083817 -9.43728,11.06873 -23.64376,18.27685 -47.52604,17.65253 z"
           id="path5" /><path
           style="display:inline;fill:none;fill-opacity:1;stroke:#000000;stroke-width:6;stroke-linecap:round;stroke-linejoin:round;stroke-dasharray:none;stroke-opacity:1"
           d="m 653.66243,115.82751 2.78677,4.69062 22.91698,0.0525 2.72048,-7.7033 0.0184,-13.449048 -25.79319,0.160028 -2.68832,3.81989 z"
           id="path6" /><path
           style="fill:none;fill-opacity:1;stroke:#000000;stroke-width:6;stroke-linecap:round;stroke-linejoin:round;stroke-dasharray:none;stroke-opacity:1"
           d="m 692.60328,99.697746 27.20484,-10e-7 2.88052,2.720485 0.16002,13.44239 -2.2404,4.4808 h -25.28449 l -2.72049,-7.52134 z"
           id="path7" /><path
           style="fill:none;fill-opacity:1;stroke:#000000;stroke-width:6;stroke-linecap:round;stroke-linejoin:round;stroke-dasharray:none;stroke-opacity:1"
           d="M 631.48375,110.48582 653.643,109.61524"
           id="path8" /><path
           style="fill:none;fill-opacity:1;stroke:#000000;stroke-width:6;stroke-linecap:round;stroke-linejoin:round;stroke-dasharray:none;stroke-opacity:1"
           d="m 744.85596,109.46066 -22.08163,0.15593"
           id="path9" /><path
           style="fill:none;fill-opacity:1;stroke:#000000;stroke-width:6;stroke-linecap:round;stroke-linejoin:round;stroke-dasharray:none;stroke-opacity:1"
           d="m 643.63099,110.00859 0.32363,-11.751101 2.2404,-10.721908 c 10.7522,-3.121664 17.57206,-7.673269 23.68422,-12.482222 l 5.28094,5.28094 c 4.58611,-0.635989 9.71501,-2.900379 16.00284,-8.641538 2.83465,3.139753 6.09191,5.856887 11.04197,6.881225 4.73354,-0.06732 7.95296,-1.648745 10.56188,-3.840684 5.47814,6.522792 11.38794,12.29017 18.5633,15.84282 1.97371,6.076209 2.39233,12.463438 2.24323,18.964208"
           id="path10" /><rect
           style="display:none;fill:#dddddd;fill-opacity:1;stroke:none;stroke-width:6;stroke-linecap:round;stroke-linejoin:round;stroke-dasharray:none;stroke-opacity:1"
           id="rect11"
           width="192.81992"
           height="203.68301"
           x="591.13336"
           y="0.45263001" /><path
           style="fill:#9999ff;fill-opacity:1;stroke:#000000;stroke-width:6;stroke-linecap:round;stroke-linejoin:round;stroke-dasharray:none;stroke-opacity:1"
           d="m 675.00015,143.06547 27.20484,0.32005"
           id="path12" /></g></g><g
       inkscape:groupmode="layer"
       id="layer6"
       inkscape:label="Daumen"
       style="display:inline"><path
         style="display:inline;fill:#fecb9e;fill-opacity:1;stroke:#000000;stroke-width:10.0006;stroke-linecap:round;stroke-linejoin:round;stroke-dasharray:none;stroke-opacity:1"
         d="m 1391.6077,967.85225 c -27.3176,-15.76864 -52.2979,-23.12292 -96.0171,-97.93743 -11.8414,-20.54004 -18.0737,-66.32142 -26.8848,-100.49788 -10.2184,-27.85136 -44.6062,-57.56191 -76.1736,-87.0555 -17.4964,-17.52783 -34.9929,-31.64749 -52.4893,-62.09105 -24.2068,-53.98529 -7.583,-67.56385 3.2006,-71.69276 16.1291,-6.39712 32.1284,-13.07753 66.5718,20.48365 l 69.1323,62.73116 c 34.3942,38.65769 63.3704,53.83711 92.8165,71.05265 52.7089,22.13576 52.8587,33.20645 76.8137,49.28877"
         id="path27"
         sodipodi:nodetypes="cccccccccc"
         inkscape:label="pathDaumen" /><path
         style="display:inline;fill:none;fill-opacity:1;stroke:#000000;stroke-width:6;stroke-linecap:round;stroke-linejoin:round;stroke-dasharray:none;stroke-opacity:1"
         d="m 1224.5379,582.50367 c -15.0575,21.28083 -31.2484,30.09338 -48.0085,32.64581"
         id="path28"
         sodipodi:nodetypes="cc"
         inkscape:label="pathFalte" /><path
         style="fill:#feead7;fill-opacity:1;fill-rule:nonzero;stroke:none;stroke-width:10.0006;stroke-linecap:round;stroke-linejoin:round;stroke-dasharray:none;stroke-opacity:1"
         d="m 1213.1097,585.00677 c -19.0692,18.01036 -33.9327,24.67546 -52.5692,24.23172 -15.9952,-16.30138 -13.3579,-30.5442 -17.8355,-45.57309 7.8185,-7.62162 18.0554,-10.40663 30.1397,-9.49692 13.3074,5.94449 32.1841,17.81697 40.265,30.83829 z"
         id="path31"
         sodipodi:nodetypes="ccccc" /></g></g><metadata
     id="metadata32"><rdf:RDF><cc:Work
         rdf:about=""><dc:creator><cc:Agent><dc:title>Stephan Cieszynski</dc:title></cc:Agent></dc:creator><cc:license
           rdf:resource="http://creativecommons.org/licenses/by-sa/4.0/" /></cc:Work><cc:License
         rdf:about="http://creativecommons.org/licenses/by-sa/4.0/"><cc:permits
           rdf:resource="http://creativecommons.org/ns#Reproduction" /><cc:permits
           rdf:resource="http://creativecommons.org/ns#Distribution" /><cc:requires
           rdf:resource="http://creativecommons.org/ns#Notice" /><cc:requires
           rdf:resource="http://creativecommons.org/ns#Attribution" /><cc:permits
           rdf:resource="http://creativecommons.org/ns#DerivativeWorks" /><cc:requires
           rdf:resource="http://creativecommons.org/ns#ShareAlike" /></cc:License></rdf:RDF></metadata></svg>
